<svg 
 xmlns="http://www.w3.org/2000/svg"
 xmlns:xlink="http://www.w3.org/1999/xlink"
 width="937px" height="141px">
<path fill-rule="evenodd"  fill="rgb(0, 139, 210)"
 d="M119.524,0.389 L116.195,0.389 L88.152,0.389 L79.297,0.389 L73.724,0.389 L31.488,81.609 L71.058,81.609 L91.036,43.193 L100.053,43.193 L110.750,91.921 L82.726,91.921 L82.726,91.952 L26.109,91.952 L0.687,140.837 L40.079,140.837 L51.725,118.446 L116.649,118.446 L121.566,140.837 L160.959,140.837 L130.122,0.389 L119.524,0.389 ZM399.174,0.389 L395.844,0.389 L367.801,0.389 L358.945,0.389 L353.372,0.389 L280.335,140.837 L319.728,140.837 L331.373,118.446 L396.298,118.446 L401.215,140.837 L440.608,140.837 L409.771,0.389 L399.174,0.389 ZM345.345,91.921 L370.685,43.193 L379.701,43.193 L390.399,91.921 L345.345,91.921 ZM280.176,0.389 L225.051,106.392 L201.778,0.389 L162.460,0.389 L193.291,140.819 L207.150,140.819 L232.611,140.819 L246.701,140.819 L319.728,0.389 L280.176,0.389 ZM933.461,14.627 C929.982,9.005 924.212,5.229 916.174,3.294 C908.124,1.357 897.152,0.389 883.226,0.389 C868.903,0.389 857.288,1.364 848.386,3.316 C839.491,5.266 832.176,9.295 826.442,15.416 C820.708,21.536 816.862,30.590 814.923,42.586 C813.450,51.828 813.540,59.162 815.174,64.589 C816.807,70.018 819.763,74.031 824.044,76.645 C828.326,79.250 833.310,80.993 838.992,81.865 C844.673,82.729 853.410,83.585 865.198,84.427 L873.657,84.961 C880.611,85.387 885.269,85.825 887.629,86.295 C889.991,86.757 891.478,87.777 892.084,89.348 C892.679,90.927 892.658,93.771 892.005,97.873 C891.392,101.716 890.199,104.530 888.433,106.311 C886.655,108.097 884.076,109.258 880.684,109.795 C877.298,110.339 872.292,110.607 865.680,110.607 C858.847,110.607 856.136,110.270 852.922,109.595 C849.708,108.924 847.569,107.464 846.503,105.230 C845.436,102.997 846.012,96.629 846.766,91.887 L807.161,91.887 C805.550,101.998 804.794,113.012 806.363,119.176 C807.929,125.342 810.985,129.974 815.539,133.080 C820.087,136.185 825.953,138.254 833.147,139.288 C840.334,140.325 849.581,140.837 860.868,140.837 C875.200,140.837 886.502,140.236 894.774,139.036 C903.046,137.838 909.558,135.670 914.312,132.535 C919.066,129.408 922.670,124.978 925.135,119.267 C927.589,113.556 929.629,105.633 931.244,95.492 C932.495,87.636 932.697,81.329 931.860,76.578 C931.014,71.820 928.858,68.053 925.376,65.260 C921.899,62.476 916.904,60.368 910.393,58.937 C903.890,57.517 895.015,56.428 883.779,55.676 L867.812,54.597 C863.478,54.241 860.371,53.823 858.501,53.338 C856.629,52.862 855.243,51.806 854.334,50.167 C853.422,48.535 853.254,45.944 853.817,42.408 C854.285,39.466 855.118,37.196 856.323,35.594 C857.529,33.985 859.831,32.758 863.241,31.901 C866.652,31.052 869.405,30.620 876.104,30.620 C882.307,30.620 885.979,30.845 888.655,31.298 C891.341,31.745 893.219,32.958 894.319,34.940 C895.410,36.920 895.253,41.271 894.519,45.886 L934.888,45.886 L936.134,39.124 C937.837,28.417 936.946,20.256 933.461,14.627 ZM740.502,140.837 L779.942,140.837 L801.044,0.389 L761.601,0.389 L740.502,140.837 ZM548.414,76.713 L520.204,0.389 L474.657,0.389 L453.556,140.837 L492.998,140.837 L504.463,64.513 L532.676,140.837 L578.222,140.837 L599.322,0.389 L559.882,0.389 L548.414,76.713 ZM701.753,0.389 L660.556,0.389 L617.273,0.389 L611.333,39.841 L654.616,39.841 L639.455,140.837 L678.895,140.837 L694.969,39.772 L737.856,39.772 L743.731,0.389 L701.753,0.389 Z"/>
</svg>