<svg 
 xmlns="http://www.w3.org/2000/svg"
 xmlns:xlink="http://www.w3.org/1999/xlink"
 width="78px" height="49px">
<path fill-rule="evenodd"  fill="rgb(0, 123, 194)"
 d="M50.724,33.637 C51.399,33.637 51.946,34.180 51.946,34.850 C51.946,35.520 51.399,36.063 50.724,36.063 L32.486,36.063 C31.812,36.063 31.265,35.520 31.265,34.850 C31.265,34.180 31.812,33.637 32.486,33.637 L50.724,33.637 ZM29.881,25.713 C29.568,25.713 29.256,25.595 29.017,25.358 L22.504,18.889 C22.027,18.415 22.027,17.647 22.504,17.174 C22.981,16.700 23.754,16.700 24.231,17.174 L29.881,22.785 L40.742,11.999 C41.219,11.525 41.992,11.525 42.469,11.999 C42.946,12.472 42.946,13.241 42.469,13.714 L30.744,25.358 C30.506,25.595 30.193,25.713 29.881,25.713 ZM76.778,41.238 L72.787,41.238 C72.787,41.265 72.789,41.291 72.789,41.319 C72.789,45.554 69.319,49.000 65.054,49.000 C60.789,49.000 57.319,45.554 57.319,41.319 C57.319,41.291 57.321,41.265 57.321,41.238 L29.797,41.238 C29.798,41.265 29.799,41.291 29.799,41.319 C29.799,45.554 26.330,49.000 22.065,49.000 C17.800,49.000 14.330,45.554 14.330,41.319 C14.330,41.291 14.332,41.265 14.332,41.238 L7.735,41.238 C6.343,41.238 5.211,40.113 5.211,38.731 L5.211,36.063 L1.221,36.063 C0.547,36.063 -0.000,35.520 -0.000,34.850 C-0.000,34.180 0.547,33.637 1.221,33.637 L12.946,33.637 C13.620,33.637 14.167,34.180 14.167,34.850 C14.167,35.520 13.620,36.063 12.946,36.063 L7.653,36.063 L7.653,38.731 C7.653,38.776 7.690,38.812 7.735,38.812 L14.755,38.812 C15.804,35.804 18.683,33.637 22.065,33.637 C25.446,33.637 28.325,35.804 29.374,38.812 L54.714,38.812 L54.714,29.675 C54.714,29.005 55.261,28.462 55.935,28.462 C56.609,28.462 57.156,29.005 57.156,29.675 L57.156,38.812 L57.744,38.812 C58.793,35.804 61.673,33.637 65.054,33.637 C68.435,33.637 71.315,35.804 72.364,38.812 L75.557,38.812 L75.557,33.476 L74.173,33.476 C72.063,33.476 70.346,31.771 70.346,29.675 L70.346,27.088 C70.346,26.418 70.893,25.875 71.568,25.875 L75.365,25.875 C74.848,24.283 73.343,23.127 71.570,23.126 C71.569,23.126 71.568,23.126 71.567,23.126 C71.566,23.126 71.565,23.125 71.564,23.125 L57.156,23.125 L57.156,24.500 C57.156,25.171 56.609,25.713 55.935,25.713 C55.261,25.713 54.714,25.170 54.714,24.500 L54.714,2.507 C54.714,2.462 54.677,2.426 54.632,2.426 L7.735,2.426 C7.690,2.426 7.653,2.462 7.653,2.507 L7.653,24.500 C7.653,25.170 7.107,25.713 6.432,25.713 C5.757,25.713 5.211,25.170 5.211,24.500 L5.211,2.507 C5.211,1.124 6.343,0.000 7.735,0.000 L54.633,0.000 C56.024,0.000 57.157,1.124 57.157,2.507 L57.157,5.175 L66.357,5.175 C69.185,5.175 71.486,7.460 71.486,10.269 L71.486,11.563 C71.486,12.146 71.072,12.632 70.520,12.749 L72.540,20.773 C75.627,21.239 78.000,23.893 78.000,27.088 L78.000,40.025 C78.000,40.695 77.453,41.238 76.778,41.238 ZM22.065,36.063 C19.147,36.063 16.772,38.420 16.772,41.319 C16.772,44.217 19.147,46.574 22.065,46.574 C24.983,46.574 27.357,44.217 27.357,41.319 C27.357,38.420 24.983,36.063 22.065,36.063 ZM65.054,36.063 C62.136,36.063 59.762,38.420 59.762,41.319 C59.762,44.217 62.136,46.574 65.054,46.574 C67.972,46.574 70.346,44.217 70.346,41.319 C70.346,38.420 67.972,36.063 65.054,36.063 ZM69.044,10.269 C69.044,8.798 67.838,7.601 66.357,7.601 L57.157,7.601 L57.157,10.350 L69.044,10.350 L69.044,10.269 ZM68.009,12.776 L57.157,12.776 L57.157,20.700 L70.004,20.700 L68.009,12.776 ZM75.557,28.300 L72.789,28.300 L72.789,29.675 C72.789,30.433 73.410,31.050 74.173,31.050 L75.557,31.050 L75.557,28.300 ZM65.054,43.826 C63.662,43.826 62.530,42.701 62.530,41.319 C62.530,39.936 63.662,38.812 65.054,38.812 C66.446,38.812 67.578,39.936 67.578,41.319 C67.578,42.701 66.446,43.826 65.054,43.826 ZM22.065,43.826 C20.673,43.826 19.541,42.701 19.541,41.319 C19.541,39.936 20.673,38.812 22.065,38.812 C23.456,38.812 24.589,39.936 24.589,41.319 C24.589,42.701 23.456,43.826 22.065,43.826 ZM20.681,29.675 C20.681,30.345 20.134,30.888 19.459,30.888 L3.827,30.888 C3.152,30.888 2.605,30.345 2.605,29.675 C2.605,29.005 3.152,28.462 3.827,28.462 L19.459,28.462 C20.134,28.462 20.681,29.005 20.681,29.675 Z"/>
</svg>