<svg 
 xmlns="http://www.w3.org/2000/svg"
 xmlns:xlink="http://www.w3.org/1999/xlink"
 width="58px" height="58px">
<path fill-rule="evenodd"  fill="rgb(0, 123, 194)"
 d="M56.729,26.235 C57.324,27.026 58.000,27.924 58.000,29.000 C58.000,30.077 57.324,30.974 56.729,31.765 C56.333,32.291 55.923,32.833 55.858,33.255 L54.066,32.973 C54.204,32.104 54.751,31.377 55.280,30.675 C55.726,30.082 56.187,29.470 56.187,29.000 C56.187,28.530 55.726,27.918 55.281,27.325 C54.752,26.623 54.204,25.895 54.067,25.027 C53.927,24.134 54.228,23.258 54.520,22.411 C54.757,21.725 55.000,21.016 54.864,20.596 C54.721,20.158 54.098,19.722 53.494,19.299 C52.769,18.793 52.020,18.269 51.616,17.479 C51.208,16.679 51.223,15.758 51.238,14.866 C51.249,14.136 51.262,13.382 50.997,13.018 C50.730,12.651 50.005,12.430 49.305,12.216 C48.455,11.957 47.575,11.689 46.945,11.057 C46.313,10.425 46.045,9.546 45.786,8.695 C45.571,7.994 45.351,7.270 44.983,7.002 C44.620,6.738 43.865,6.752 43.135,6.762 C42.247,6.780 41.321,6.792 40.522,6.384 C39.733,5.981 39.208,5.231 38.702,4.506 C38.279,3.902 37.842,3.279 37.406,3.136 C36.984,2.999 36.275,3.244 35.588,3.481 C34.742,3.773 33.865,4.072 32.973,3.934 C32.104,3.797 31.377,3.250 30.674,2.720 C30.082,2.274 29.470,1.812 29.000,1.812 C28.530,1.812 27.918,2.274 27.327,2.720 C26.624,3.250 25.896,3.798 25.028,3.934 C24.134,4.073 23.260,3.773 22.413,3.481 C21.726,3.245 21.016,2.999 20.597,3.136 C20.160,3.279 19.723,3.902 19.301,4.506 C18.794,5.232 18.270,5.981 17.480,6.384 C16.680,6.792 15.759,6.777 14.867,6.762 C14.138,6.750 13.383,6.738 13.019,7.002 C12.651,7.270 12.431,7.995 12.217,8.695 C11.958,9.546 11.690,10.425 11.058,11.056 C10.426,11.688 9.546,11.956 8.696,12.216 C7.995,12.430 7.271,12.651 7.003,13.018 C6.740,13.382 6.752,14.136 6.763,14.866 C6.779,15.758 6.793,16.679 6.385,17.479 C5.982,18.269 5.232,18.793 4.507,19.299 C3.903,19.722 3.279,20.158 3.137,20.596 C3.000,21.015 3.244,21.725 3.481,22.411 C3.773,23.258 4.075,24.134 3.934,25.027 C3.797,25.896 3.250,26.623 2.720,27.326 C2.274,27.918 1.812,28.530 1.812,29.000 C1.812,29.470 2.274,30.082 2.720,30.674 C3.250,31.377 3.798,32.104 3.934,32.973 L2.143,33.255 C2.077,32.833 1.668,32.290 1.272,31.765 C0.676,30.974 -0.000,30.077 -0.000,29.000 C-0.000,27.924 0.676,27.026 1.273,26.235 C1.669,25.710 2.078,25.167 2.144,24.746 C2.215,24.297 1.987,23.640 1.768,23.003 C1.450,22.079 1.089,21.033 1.413,20.035 C1.744,19.019 2.660,18.379 3.469,17.813 C4.012,17.434 4.574,17.041 4.771,16.654 C4.973,16.256 4.963,15.565 4.952,14.895 C4.935,13.915 4.917,12.803 5.538,11.951 C6.163,11.094 7.227,10.768 8.167,10.482 C8.805,10.287 9.465,10.086 9.777,9.774 C10.088,9.462 10.290,8.803 10.484,8.165 C10.770,7.225 11.095,6.160 11.953,5.536 C12.806,4.914 13.916,4.931 14.897,4.950 C15.565,4.960 16.258,4.972 16.655,4.770 C17.043,4.572 17.435,4.010 17.815,3.467 C18.381,2.658 19.021,1.742 20.037,1.412 C21.033,1.089 22.079,1.449 23.002,1.767 C23.640,1.987 24.299,2.215 24.746,2.143 C25.167,2.077 25.710,1.668 26.235,1.273 C27.026,0.676 27.923,-0.000 29.000,-0.000 C30.077,-0.000 30.974,0.676 31.764,1.273 C32.290,1.668 32.832,2.077 33.254,2.143 C33.701,2.212 34.361,1.987 34.998,1.767 C35.921,1.450 36.969,1.090 37.967,1.414 C38.982,1.743 39.623,2.660 40.188,3.469 C40.567,4.013 40.960,4.575 41.348,4.772 C41.744,4.975 42.437,4.965 43.106,4.953 C44.085,4.936 45.197,4.918 46.049,5.539 C46.907,6.163 47.233,7.228 47.519,8.168 C47.713,8.805 47.914,9.465 48.226,9.777 C48.537,10.087 49.197,10.289 49.834,10.483 C50.774,10.770 51.839,11.095 52.463,11.952 C53.084,12.806 53.066,13.916 53.049,14.897 C53.038,15.566 53.026,16.258 53.230,16.655 C53.428,17.043 53.989,17.435 54.533,17.815 C55.342,18.381 56.259,19.021 56.588,20.037 C56.912,21.034 56.552,22.080 56.233,23.003 C56.013,23.638 55.787,24.297 55.858,24.746 C55.923,25.167 56.333,25.710 56.729,26.235 ZM4.531,33.531 C6.030,33.531 7.250,34.751 7.250,36.250 L7.250,37.156 L5.437,37.156 L5.437,36.250 C5.437,35.750 5.031,35.344 4.531,35.344 C4.032,35.344 3.625,35.750 3.625,36.250 L3.625,41.688 C3.625,42.188 4.032,42.594 4.531,42.594 C5.031,42.594 5.437,42.188 5.437,41.688 L5.437,40.781 L4.531,40.781 L4.531,38.969 L6.344,38.969 C6.844,38.969 7.250,39.374 7.250,39.875 L7.250,41.688 C7.250,43.186 6.030,44.406 4.531,44.406 C3.032,44.406 1.812,43.186 1.812,41.688 L1.812,36.250 C1.812,34.751 3.032,33.531 4.531,33.531 ZM50.750,42.594 L50.750,44.406 L47.125,44.406 C46.624,44.406 46.219,44.001 46.219,43.500 L46.219,34.437 C46.219,33.936 46.624,33.531 47.125,33.531 L50.750,33.531 L50.750,35.344 L48.031,35.344 L48.031,38.062 L50.750,38.062 L50.750,39.875 L48.031,39.875 L48.031,42.594 L50.750,42.594 ZM19.031,20.844 L18.125,20.844 L18.125,19.031 L19.938,19.031 C20.438,19.031 20.844,19.437 20.844,19.937 L20.844,29.906 L19.031,29.906 L19.031,20.844 ZM14.500,36.250 C14.500,34.751 15.720,33.531 17.219,33.531 C18.718,33.531 19.938,34.751 19.938,36.250 L19.938,44.406 L18.125,44.406 L18.125,42.594 L16.313,42.594 L16.313,44.406 L14.500,44.406 L14.500,36.250 ZM16.313,40.781 L18.125,40.781 L18.125,36.250 C18.125,35.750 17.718,35.344 17.219,35.344 C16.720,35.344 16.313,35.750 16.313,36.250 L16.313,40.781 ZM15.165,46.936 L16.273,45.502 C19.951,48.342 24.352,49.844 29.000,49.844 C33.649,49.844 38.049,48.342 41.727,45.502 L42.836,46.936 C38.837,50.024 34.053,51.656 29.000,51.656 C23.947,51.656 19.164,50.024 15.165,46.936 ZM44.406,28.094 L42.594,28.094 L42.594,26.281 L44.406,26.281 L44.406,28.094 ZM43.403,22.155 L39.778,29.405 L38.157,28.595 L41.782,21.345 L43.403,22.155 ZM38.969,24.469 L37.156,24.469 L37.156,22.656 L38.969,22.656 L38.969,24.469 ZM37.156,33.531 L38.969,33.531 L38.969,43.500 C38.969,43.934 38.661,44.308 38.234,44.390 C38.177,44.401 38.119,44.406 38.062,44.406 C37.698,44.406 37.361,44.186 37.221,43.836 L35.344,39.143 L35.344,44.406 L33.531,44.406 L33.531,34.437 C33.531,34.003 33.839,33.629 34.266,33.548 C34.686,33.471 35.117,33.696 35.279,34.101 L37.156,38.795 L37.156,33.531 ZM32.172,19.031 C33.921,19.031 35.344,20.454 35.344,22.203 L35.344,26.735 C35.344,28.483 33.921,29.906 32.172,29.906 C30.423,29.906 29.000,28.483 29.000,26.735 L29.000,22.203 C29.000,20.454 30.423,19.031 32.172,19.031 ZM30.812,26.735 C30.812,27.484 31.422,28.094 32.172,28.094 C32.921,28.094 33.531,27.484 33.531,26.735 L33.531,22.203 C33.531,21.454 32.921,20.844 32.172,20.844 C31.422,20.844 30.812,21.454 30.812,22.203 L30.812,26.735 ZM32.625,36.250 L32.625,44.406 L30.812,44.406 L30.812,42.594 L29.000,42.594 L29.000,44.406 L27.187,44.406 L27.187,36.250 C27.187,34.751 28.407,33.531 29.906,33.531 C31.405,33.531 32.625,34.751 32.625,36.250 ZM29.000,36.250 L29.000,40.781 L30.812,40.781 L30.812,36.250 C30.812,35.750 30.406,35.344 29.906,35.344 C29.407,35.344 29.000,35.750 29.000,36.250 ZM24.922,19.031 C26.671,19.031 28.094,20.454 28.094,22.203 L28.094,26.735 C28.094,28.483 26.671,29.906 24.922,29.906 C23.173,29.906 21.750,28.483 21.750,26.735 L21.750,22.203 C21.750,20.454 23.173,19.031 24.922,19.031 ZM23.562,26.735 C23.562,27.484 24.172,28.094 24.922,28.094 C25.671,28.094 26.281,27.484 26.281,26.735 L26.281,22.203 C26.281,21.454 25.671,20.844 24.922,20.844 C24.172,20.844 23.562,21.454 23.562,22.203 L23.562,26.735 ZM20.844,44.406 L20.844,38.972 C20.844,38.970 20.844,38.968 20.844,38.965 L20.844,34.437 C20.844,33.936 21.250,33.531 21.750,33.531 L23.109,33.531 C24.859,33.531 26.281,34.954 26.281,36.703 C26.281,38.284 25.119,39.598 23.604,39.836 L25.810,42.594 L26.281,42.594 L26.281,44.406 L25.375,44.406 C25.099,44.406 24.839,44.281 24.667,44.066 L22.656,41.552 L22.656,44.406 L20.844,44.406 ZM23.109,38.062 C23.859,38.062 24.469,37.453 24.469,36.703 C24.469,35.954 23.859,35.344 23.109,35.344 L22.656,35.344 L22.656,38.062 L23.109,38.062 ZM41.688,44.406 L41.688,35.344 L39.875,35.344 L39.875,33.531 L45.313,33.531 L45.313,35.344 L43.500,35.344 L43.500,44.406 L41.688,44.406 ZM6.344,29.000 C6.344,16.507 16.507,6.344 29.000,6.344 C41.493,6.344 51.656,16.507 51.656,29.000 C51.656,29.913 51.595,30.865 51.473,31.831 L49.675,31.606 C49.787,30.715 49.844,29.837 49.844,29.000 C49.844,17.507 40.494,8.156 29.000,8.156 C17.507,8.156 8.156,17.507 8.156,29.000 C8.156,29.837 8.212,30.715 8.324,31.606 L6.526,31.831 C6.405,30.865 6.344,29.913 6.344,29.000 ZM13.594,33.531 L13.594,41.688 C13.594,43.186 12.374,44.406 10.875,44.406 C9.376,44.406 8.156,43.186 8.156,41.688 L8.156,33.531 L9.969,33.531 L9.969,41.688 C9.969,42.188 10.376,42.594 10.875,42.594 C11.374,42.594 11.781,42.188 11.781,41.688 L11.781,33.531 L13.594,33.531 ZM8.694,45.783 C9.545,46.043 10.425,46.311 11.056,46.943 C11.688,47.574 11.956,48.453 12.216,49.304 C12.430,50.004 12.651,50.728 13.018,50.996 C13.382,51.261 14.137,51.246 14.867,51.237 C15.757,51.221 16.680,51.207 17.479,51.615 C18.268,52.018 18.792,52.767 19.300,53.493 C19.721,54.097 20.158,54.721 20.595,54.863 C21.017,55.001 21.726,54.755 22.412,54.519 C23.258,54.228 24.136,53.932 25.027,54.066 C25.895,54.204 26.623,54.751 27.325,55.280 C27.918,55.726 28.530,56.188 29.000,56.188 C29.470,56.188 30.082,55.726 30.674,55.280 C31.376,54.751 32.103,54.203 32.972,54.066 C33.865,53.932 34.741,54.228 35.588,54.519 C36.275,54.757 36.983,55.001 37.404,54.863 C37.842,54.720 38.278,54.097 38.701,53.493 C39.207,52.768 39.731,52.019 40.520,51.615 C41.321,51.208 42.242,51.222 43.134,51.237 C43.859,51.248 44.618,51.260 44.981,50.996 C45.349,50.729 45.570,50.005 45.783,49.304 C46.043,48.455 46.311,47.574 46.943,46.944 C47.574,46.312 48.454,46.044 49.304,45.785 C50.004,45.570 50.729,45.350 50.995,44.984 L52.460,46.049 C51.837,46.907 50.771,47.233 49.831,47.519 C49.194,47.713 48.535,47.914 48.223,48.226 C47.912,48.537 47.710,49.198 47.516,49.835 C47.229,50.774 46.904,51.839 46.048,52.463 C45.193,53.084 44.077,53.065 43.103,53.049 C42.433,53.036 41.742,53.026 41.345,53.230 C40.959,53.427 40.566,53.989 40.186,54.532 C39.620,55.341 38.980,56.259 37.964,56.588 C36.970,56.913 35.923,56.552 34.998,56.233 C34.361,56.014 33.697,55.780 33.255,55.858 C32.833,55.923 32.290,56.332 31.765,56.728 C30.974,57.324 30.077,58.000 29.000,58.000 C27.923,58.000 27.026,57.324 26.235,56.728 C25.710,56.332 25.167,55.922 24.746,55.857 C24.299,55.780 23.640,56.014 23.002,56.232 C22.079,56.551 21.032,56.908 20.036,56.587 C19.020,56.256 18.380,55.340 17.814,54.531 C17.435,53.987 17.042,53.425 16.655,53.228 C16.258,53.026 15.565,53.040 14.897,53.047 C13.915,53.063 12.804,53.084 11.952,52.461 C11.094,51.838 10.769,50.773 10.483,49.833 C10.288,49.195 10.087,48.536 9.775,48.224 C9.463,47.913 8.803,47.711 8.165,47.516 C7.226,47.230 6.161,46.905 5.537,46.048 L7.003,44.981 C7.269,45.349 7.994,45.570 8.694,45.783 ZM51.656,43.500 L51.656,34.437 C51.656,33.936 52.061,33.531 52.562,33.531 L56.187,33.531 L56.187,35.344 L53.469,35.344 L53.469,38.062 L56.187,38.062 L56.187,39.875 L53.469,39.875 L53.469,42.594 L56.187,42.594 L56.187,44.406 L52.562,44.406 C52.061,44.406 51.656,44.001 51.656,43.500 Z"/>
</svg>