<svg 
 xmlns="http://www.w3.org/2000/svg"
 xmlns:xlink="http://www.w3.org/1999/xlink"
 width="59px" height="55px">
<path fill-rule="evenodd"  fill="rgb(0, 123, 194)"
 d="M47.413,16.096 C47.413,16.698 46.920,17.188 46.313,17.188 C45.707,17.188 45.213,16.698 45.213,16.096 C45.213,15.493 45.707,15.003 46.313,15.003 C46.920,15.003 47.413,15.493 47.413,16.096 ZM41.755,16.096 C41.755,16.698 41.261,17.188 40.655,17.188 C40.048,17.188 39.554,16.698 39.554,16.096 C39.554,15.493 40.048,15.003 40.655,15.003 C41.261,15.003 41.755,15.493 41.755,16.096 ZM40.655,32.192 C38.999,32.192 37.344,31.992 35.736,31.599 L35.734,31.598 C35.195,31.468 34.863,30.926 34.994,30.388 C35.057,30.129 35.219,29.910 35.450,29.771 C35.611,29.674 35.790,29.624 35.972,29.624 C36.052,29.624 36.133,29.633 36.212,29.653 C37.649,30.000 39.144,30.177 40.655,30.177 C49.658,30.177 56.983,23.854 56.983,16.084 C56.983,8.313 49.658,1.991 40.655,1.991 C31.651,1.991 24.326,8.313 24.326,16.084 C24.326,19.317 25.566,22.365 27.912,24.896 C28.169,25.175 28.251,25.581 28.121,25.928 C27.784,26.826 27.368,27.577 26.852,28.224 L26.125,29.134 L27.287,29.008 C28.567,28.871 29.724,28.497 30.726,27.897 C30.956,27.760 31.226,27.720 31.487,27.784 C31.747,27.849 31.968,28.012 32.108,28.243 C32.247,28.471 32.287,28.739 32.222,28.997 C32.157,29.257 31.993,29.476 31.761,29.615 C29.012,31.262 26.018,31.156 24.483,30.947 C23.854,30.853 23.377,30.419 23.238,29.814 C23.100,29.212 23.351,28.598 23.870,28.254 C24.699,27.723 25.364,26.987 25.847,26.068 L25.996,25.784 L25.792,25.536 C23.546,22.812 22.309,19.460 22.309,16.096 C22.309,7.221 30.539,-0.000 40.655,-0.000 C50.770,-0.000 59.000,7.221 59.000,16.096 C59.000,24.971 50.770,32.192 40.655,32.192 ZM34.996,15.003 C35.602,15.003 36.096,15.493 36.096,16.096 C36.096,16.698 35.602,17.188 34.996,17.188 C34.389,17.188 33.896,16.698 33.896,16.096 C33.896,15.493 34.389,15.003 34.996,15.003 ZM16.099,33.444 C18.562,36.458 21.139,38.792 23.978,40.576 C24.228,40.735 24.505,40.876 24.797,41.026 L25.088,41.173 C25.232,41.243 25.381,41.316 25.516,41.391 L25.839,41.571 L28.988,38.444 C29.881,37.546 30.936,37.071 32.038,37.071 C33.149,37.071 34.193,37.548 35.066,38.459 L40.284,43.642 C42.125,45.470 42.132,47.877 40.299,49.775 C39.903,50.192 39.495,50.598 39.082,50.984 L39.061,51.003 C38.467,51.569 37.906,52.103 37.409,52.693 L37.361,52.742 C35.978,54.240 34.204,55.000 32.087,55.000 C31.904,55.000 31.702,54.988 31.506,54.977 L31.506,54.977 C28.311,54.777 25.417,53.580 23.255,52.560 C17.581,49.838 12.603,45.968 8.459,41.058 C5.056,36.981 2.763,33.181 1.244,29.098 C0.621,27.418 -0.183,24.875 0.039,22.206 C0.174,20.587 0.839,19.169 2.012,17.993 L5.256,14.770 C6.167,13.898 7.225,13.437 8.315,13.437 C9.406,13.437 10.444,13.896 11.318,14.764 L11.329,14.775 C11.869,15.277 12.475,15.876 13.090,16.512 C13.236,16.657 13.382,16.805 13.528,16.952 C13.675,17.102 13.823,17.252 13.970,17.398 L16.561,19.972 C17.491,20.895 17.982,21.956 17.982,23.039 C17.982,24.122 17.491,25.183 16.561,26.107 L15.751,26.911 C15.152,27.517 14.435,28.233 13.664,28.948 L13.405,29.188 L13.555,29.507 C14.138,30.756 14.946,32.006 16.099,33.444 ZM11.887,27.862 L11.939,27.810 C12.760,27.079 13.512,26.320 14.308,25.518 L14.327,25.499 C14.592,25.224 14.857,24.960 15.145,24.674 C15.697,24.104 15.966,23.565 15.966,23.027 C15.966,22.474 15.687,21.918 15.138,21.373 L12.547,18.799 C12.248,18.502 11.939,18.196 11.646,17.892 L11.623,17.869 C11.045,17.283 10.498,16.729 9.926,16.196 C9.411,15.686 8.869,15.428 8.315,15.428 C7.756,15.428 7.187,15.689 6.661,16.190 L3.459,19.370 C2.595,20.227 2.129,21.209 2.034,22.366 C1.882,24.131 2.215,25.989 3.114,28.391 C4.571,32.288 6.757,35.900 9.992,39.761 L9.993,39.762 C13.946,44.448 18.692,48.146 24.103,50.753 C26.082,51.692 28.725,52.795 31.606,52.983 C31.773,52.997 31.920,52.997 32.075,52.997 C33.631,52.997 34.828,52.497 35.841,51.423 L35.859,51.404 C36.348,50.827 36.890,50.302 37.415,49.794 L37.923,49.304 C38.244,48.997 38.548,48.707 38.831,48.405 C39.919,47.282 39.929,46.127 38.861,45.067 L33.625,39.867 C33.117,39.341 32.583,39.074 32.038,39.074 C31.345,39.074 30.770,39.501 30.409,39.860 L27.155,43.091 C26.545,43.707 25.851,43.830 25.094,43.459 C25.079,43.451 25.065,43.443 25.051,43.435 C25.030,43.423 25.008,43.411 24.984,43.398 C24.739,43.245 24.469,43.107 24.184,42.961 L23.946,42.840 C23.600,42.669 23.242,42.491 22.901,42.269 C19.884,40.371 17.148,37.896 14.539,34.705 C13.111,32.923 12.172,31.408 11.497,29.798 C11.490,29.777 11.483,29.759 11.476,29.741 C11.473,29.734 11.470,29.727 11.467,29.720 C11.288,29.185 11.198,28.546 11.887,27.862 Z"/>
</svg>