<svg 
 xmlns="http://www.w3.org/2000/svg"
 xmlns:xlink="http://www.w3.org/1999/xlink"
 width="58px" height="58px">
<path fill-rule="evenodd"  fill="rgb(0, 123, 194)"
 d="M54.601,44.859 L53.469,44.859 L53.469,47.805 C53.469,50.928 50.928,53.469 47.805,53.469 L45.878,53.469 C45.352,56.051 43.063,58.000 40.328,58.000 L5.664,58.000 C2.541,58.000 -0.000,55.459 -0.000,52.336 L-0.000,17.672 C-0.000,14.549 2.541,12.008 5.664,12.008 L6.797,12.008 L6.797,10.875 C6.797,9.001 8.321,7.477 10.195,7.477 L13.594,7.477 L13.594,3.398 C13.594,1.525 15.118,-0.000 16.992,-0.000 L38.062,-0.000 C39.937,-0.000 41.461,1.525 41.461,3.398 L41.461,12.008 L47.805,12.008 C50.928,12.008 53.469,14.549 53.469,17.672 L53.469,26.734 C55.967,26.734 58.000,28.767 58.000,31.266 L58.000,41.461 C58.000,43.335 56.476,44.859 54.601,44.859 ZM45.992,51.203 L47.805,51.203 C49.679,51.203 51.203,49.679 51.203,47.805 L51.203,44.859 L45.992,44.859 L45.992,51.203 ZM6.797,14.273 L5.664,14.273 C3.790,14.273 2.266,15.798 2.266,17.672 C2.266,19.715 4.034,21.070 5.907,21.070 L6.797,21.070 L6.797,14.273 ZM10.195,9.742 C9.571,9.742 9.063,10.250 9.063,10.875 L9.063,21.070 L18.125,21.070 L18.125,9.742 L10.195,9.742 ZM39.195,3.398 C39.195,2.773 38.687,2.266 38.062,2.266 L16.992,2.266 C16.367,2.266 15.859,2.773 15.859,3.398 L15.859,7.477 L30.586,7.477 C32.460,7.477 33.984,9.001 33.984,10.875 L33.984,21.070 L39.195,21.070 L39.195,3.398 ZM20.391,9.742 L20.391,21.070 L24.922,21.070 L24.922,9.742 L20.391,9.742 ZM27.187,9.742 L27.187,21.070 L31.719,21.070 L31.719,10.875 C31.719,10.250 31.211,9.742 30.586,9.742 L27.187,9.742 ZM40.328,23.336 L5.907,23.336 C4.551,23.336 3.279,22.888 2.266,22.133 L2.266,52.336 C2.266,54.210 3.790,55.734 5.664,55.734 L40.328,55.734 C42.202,55.734 43.727,54.210 43.727,52.336 L43.727,44.859 L35.797,44.859 C33.923,44.859 32.398,43.335 32.398,41.461 L32.398,36.930 C32.398,35.056 33.923,33.531 35.797,33.531 L43.727,33.531 L43.727,26.734 C43.727,24.861 42.202,23.336 40.328,23.336 ZM51.203,17.672 C51.203,15.798 49.679,14.273 47.805,14.273 L41.461,14.273 L41.461,21.184 C44.043,21.710 45.992,23.999 45.992,26.734 L45.992,33.531 L51.203,33.531 L51.203,17.672 ZM53.469,29.000 L53.469,33.531 C54.720,33.531 55.734,32.517 55.734,31.266 C55.734,30.016 54.718,29.000 53.469,29.000 ZM55.734,35.190 C55.053,35.585 54.277,35.797 53.469,35.797 L35.797,35.797 C35.172,35.797 34.664,36.305 34.664,36.930 L34.664,41.461 C34.664,42.086 35.172,42.594 35.797,42.594 L54.601,42.594 C55.226,42.594 55.734,42.086 55.734,41.461 L55.734,35.190 ZM47.805,40.328 L42.594,40.328 C41.968,40.328 41.461,39.821 41.461,39.195 C41.461,38.569 41.968,38.062 42.594,38.062 L47.805,38.062 C48.430,38.062 48.938,38.569 48.938,39.195 C48.938,39.821 48.430,40.328 47.805,40.328 ZM38.062,40.328 C37.437,40.328 36.930,39.821 36.930,39.195 C36.930,38.570 37.437,38.062 38.062,38.062 C38.688,38.062 39.195,38.570 39.195,39.195 C39.195,39.821 38.688,40.328 38.062,40.328 ZM22.656,36.930 C24.530,36.930 26.055,38.454 26.055,40.328 C26.055,41.805 25.107,43.064 23.789,43.532 L23.789,44.859 C23.789,45.485 23.282,45.992 22.656,45.992 C22.031,45.992 21.523,45.485 21.523,44.859 L21.523,43.537 C20.769,43.284 20.057,42.782 19.451,42.062 C19.048,41.583 19.110,40.868 19.589,40.466 C20.068,40.063 20.783,40.125 21.185,40.604 C21.649,41.157 22.172,41.461 22.656,41.461 C23.281,41.461 23.789,40.953 23.789,40.328 C23.789,39.703 23.281,39.195 22.656,39.195 C20.782,39.195 19.258,37.671 19.258,35.797 C19.258,34.320 20.205,33.061 21.523,32.593 L21.523,31.266 C21.523,30.640 22.031,30.133 22.656,30.133 C23.282,30.133 23.789,30.640 23.789,31.266 L23.789,32.585 C24.307,32.757 24.882,33.072 25.457,33.628 C25.907,34.063 25.918,34.780 25.483,35.229 C25.048,35.680 24.331,35.691 23.882,35.256 C23.481,34.869 23.058,34.664 22.656,34.664 C22.031,34.664 21.523,35.172 21.523,35.797 C21.523,36.422 22.031,36.930 22.656,36.930 ZM13.594,18.805 C12.968,18.805 12.461,18.297 12.461,17.672 L12.461,13.141 C12.461,12.515 12.968,12.008 13.594,12.008 C14.219,12.008 14.727,12.515 14.727,13.141 L14.727,17.672 C14.727,18.297 14.219,18.805 13.594,18.805 Z"/>
</svg>