<svg 
 xmlns="http://www.w3.org/2000/svg"
 xmlns:xlink="http://www.w3.org/1999/xlink"
 width="20px" height="26px">
<path fill-rule="evenodd"  fill="rgb(128, 128, 128)"
 d="M19.524,26.000 L1.906,26.000 C1.643,26.000 1.430,25.806 1.430,25.567 L1.430,6.067 C1.430,5.945 1.487,5.830 1.585,5.748 L1.725,5.633 L0.141,4.208 C0.140,4.208 0.140,4.207 0.139,4.206 C-0.046,4.037 -0.046,3.762 0.141,3.593 L3.950,0.127 C4.136,-0.042 4.438,-0.042 4.623,0.127 L6.411,1.754 L6.823,1.413 C6.911,1.340 7.025,1.300 7.144,1.300 L19.524,1.300 C19.787,1.300 20.000,1.494 20.000,1.733 L20.000,25.567 C20.000,25.806 19.787,26.000 19.524,26.000 ZM4.287,1.046 L1.153,3.900 L2.430,5.047 L5.706,2.337 L4.287,1.046 ZM19.048,2.167 L7.328,2.167 L2.382,6.258 L2.382,25.133 L19.048,25.133 L19.048,2.167 ZM4.287,7.800 L16.667,7.800 C16.930,7.800 17.143,7.994 17.143,8.233 L17.143,21.233 C17.143,21.473 16.930,21.667 16.667,21.667 L4.287,21.667 C4.024,21.667 3.811,21.473 3.811,21.233 L3.811,8.233 C3.811,7.994 4.024,7.800 4.287,7.800 ZM4.763,20.800 L16.191,20.800 L16.191,8.667 L4.763,8.667 L4.763,20.800 ZM12.381,19.067 C12.325,19.069 12.269,19.069 12.213,19.067 C11.207,19.024 10.430,18.248 10.477,17.333 C10.477,16.145 11.860,14.623 12.018,14.453 C12.028,14.443 12.039,14.434 12.050,14.424 C12.251,14.258 12.562,14.271 12.745,14.453 C12.903,14.623 14.286,16.145 14.286,17.333 C14.289,17.384 14.289,17.436 14.286,17.487 C14.239,18.402 13.387,19.109 12.381,19.067 ZM12.381,15.442 C11.961,15.977 11.429,16.780 11.429,17.333 C11.429,17.812 11.855,18.200 12.381,18.200 C12.907,18.200 13.334,17.812 13.334,17.333 C13.334,16.780 12.802,15.977 12.381,15.442 ZM8.572,15.600 C7.258,15.598 6.193,14.629 6.191,13.433 C6.191,11.995 8.026,10.284 8.235,10.094 C8.421,9.924 8.723,9.924 8.909,10.094 C9.118,10.284 10.953,11.995 10.953,13.433 C10.951,14.629 9.886,15.598 8.572,15.600 ZM8.572,11.036 C7.994,11.639 7.144,12.685 7.144,13.433 C7.144,14.151 7.783,14.733 8.572,14.733 C9.361,14.733 10.001,14.151 10.001,13.433 C10.001,12.683 9.152,11.638 8.572,11.036 ZM12.381,24.267 L11.429,24.267 L11.429,23.400 L12.381,23.400 L12.381,24.267 ZM17.143,22.533 L18.095,22.533 L18.095,24.267 L13.334,24.267 L13.334,23.400 L17.143,23.400 L17.143,22.533 ZM16.667,6.500 L7.144,6.500 C6.951,6.500 6.777,6.394 6.704,6.232 C6.630,6.071 6.671,5.884 6.807,5.760 L9.664,3.160 C9.753,3.079 9.874,3.033 10.001,3.033 L16.667,3.033 C16.930,3.033 17.143,3.227 17.143,3.466 L17.143,6.067 C17.143,6.306 16.930,6.500 16.667,6.500 ZM16.191,3.900 L10.198,3.900 L8.293,5.633 L16.191,5.633 L16.191,3.900 ZM6.331,4.027 L7.283,3.161 L7.956,3.773 L7.004,4.640 L6.331,4.027 ZM4.426,5.760 L5.378,4.894 L6.052,5.506 L5.100,6.373 L4.426,5.760 Z"/>
</svg>