<?xml version="1.0" encoding="utf-8"?><svg viewBox="0 0 25 25" xmlns="http://www.w3.org/2000/svg" xmlns:xlink="http://www.w3.org/1999/xlink"><style>:root>svg{display:none}:root>svg:target{display:block}</style><svg viewBox="0 0 24 17" id="ic_category1" xmlns="http://www.w3.org/2000/svg"><path fill-rule="evenodd" d="M22.696 12.904h-.78a.78.78 0 0 1-.779-.78v-1.95h-.78v1.95a1.17 1.17 0 0 1-1.17 1.17h-.78a.787.787 0 0 0-.467.156l-4.055 3.042a1.567 1.567 0 0 1-.936.312H4.761a1.169 1.169 0 0 1-1.169-1.17v-2.34h-1.17v1.95a.78.78 0 0 1-.78.78h-.78a.78.78 0 0 1-.779-.78v-6.24a.78.78 0 0 1 .779-.78h.78a.78.78 0 0 1 .78.78v1.95h1.17v-2.73c0-.647.523-1.17 1.169-1.17h1.205a.822.822 0 0 0 .441-.134l2.91-1.946a1.61 1.61 0 0 1 .868-.261h.425v-.78H8.66a.78.78 0 0 1-.78-.78v-.39A1.953 1.953 0 0 1 9.83.813h3.899a1.952 1.952 0 0 1 1.949 1.95v.39a.78.78 0 0 1-.78.78h-1.949v.78h6.238c.646 0 1.17.524 1.17 1.171v1.95h.78v-1.95a.78.78 0 0 1 .779-.781h.78c.431 0 .78.35.78.781v6.24a.78.78 0 0 1-.78.78zm-21.054-3.9h-.78v6.24h.78v-6.24zm1.95 2.73h-1.17v.78h1.17v-.78zm11.306-8.581v-.39a1.17 1.17 0 0 0-1.169-1.17H9.83a1.17 1.17 0 0 0-1.17 1.17v.39h6.238zm-3.509.78v.78h.78v-.78h-.78zm8.188 1.951a.39.39 0 0 0-.39-.391h-9.002a.822.822 0 0 0-.441.134L6.833 7.573a1.609 1.609 0 0 1-.867.261H4.761a.39.39 0 0 0-.39.39v7.41c0 .216.175.39.39.39h8.188a.786.786 0 0 0 .468-.156l4.055-3.042c.27-.202.598-.311.935-.312h.78a.39.39 0 0 0 .39-.39v-6.24zm1.56 2.73h-.78v.78h.78v-.78zm1.559-2.73h-.78v6.24h.78v-6.24zm-11.735 9.22a.39.39 0 0 1-.669-.373l.998-2.997h-1.274a.781.781 0 0 1-.747-1.004l.936-3.12a.783.783 0 0 1 .746-.556h1.526a.78.78 0 0 1 .747 1.004l-.518 1.726h1.023a.78.78 0 0 1 .598 1.28l-3.366 4.04zm1.745-4.54a.78.78 0 0 1-.747-1.004l.518-1.726h-1.525l-.936 3.12h1.815a.39.39 0 0 1 .371.513l-.517 1.55 2.044-2.453h-1.023zm-7.165 3.9a.39.39 0 0 1-.39-.39v-3.51a.39.39 0 1 1 .78 0v3.51a.39.39 0 0 1-.39.39zM5.39 9.368a.39.39 0 0 1-.208-.513.466.466 0 0 1 .082-.128.41.41 0 0 1 .554 0 .466.466 0 0 1 .082.128.39.39 0 0 1-.51.513z"/></svg><svg viewBox="0 0 24 23" id="ic_category10" xmlns="http://www.w3.org/2000/svg"><path fill-rule="evenodd" d="M23.088 13.394l-2.416.487a8.835 8.835 0 0 1-.723 1.741l1.365 2.055a.418.418 0 0 1-.052.526l-2.27 2.27a.42.42 0 0 1-.526.053l-2.055-1.366a8.8 8.8 0 0 1-1.741.723l-.488 2.416a.416.416 0 0 1-.41.334h-3.211a.417.417 0 0 1-.41-.334l-.487-2.417a8.775 8.775 0 0 1-1.741-.723l-2.055 1.366a.42.42 0 0 1-.526-.053l-2.27-2.27a.42.42 0 0 1-.053-.526l1.366-2.055a8.8 8.8 0 0 1-.723-1.741l-2.414-.487a.42.42 0 0 1-.335-.411v-3.21c0-.199.14-.371.335-.41l2.415-.488a8.8 8.8 0 0 1 .723-1.741L3.021 5.078a.418.418 0 0 1 .052-.526l2.27-2.27a.418.418 0 0 1 .526-.052l2.055 1.365a8.8 8.8 0 0 1 1.741-.723l.488-2.414a.418.418 0 0 1 .41-.335h3.21a.42.42 0 0 1 .411.335l.487 2.415a8.86 8.86 0 0 1 1.741.723l2.055-1.365a.418.418 0 0 1 .526.052l2.27 2.27c.14.141.162.361.052.526L19.95 7.134a8.8 8.8 0 0 1 .723 1.741l2.416.488c.195.04.334.211.334.41v3.211c0 .199-.14.37-.335.41zm-2.83-3.749a.417.417 0 0 1-.322-.304 7.995 7.995 0 0 0-.837-2.013.415.415 0 0 1 .013-.442l1.317-1.985-1.785-1.785-1.984 1.317a.417.417 0 0 1-.443.013 8.038 8.038 0 0 0-2.012-.836.418.418 0 0 1-.305-.321L13.43.956h-2.525l-.47 2.333a.418.418 0 0 1-.305.321 8.038 8.038 0 0 0-2.012.836.417.417 0 0 1-.443-.013L5.69 3.116 3.905 4.901l1.318 1.985a.415.415 0 0 1 .013.442A7.992 7.992 0 0 0 4.4 9.341a.417.417 0 0 1-.322.304l-2.332.47v2.524l2.332.47c.157.032.282.15.322.305.185.705.467 1.382.836 2.012a.417.417 0 0 1-.013.443l-1.318 1.985 1.785 1.785 1.985-1.318a.417.417 0 0 1 .443-.013c.629.37 1.306.651 2.012.837.155.04.273.165.305.322l.47 2.332h2.522l.47-2.332a.418.418 0 0 1 .305-.322 7.989 7.989 0 0 0 2.012-.837.417.417 0 0 1 .443.013l1.984 1.318 1.786-1.785-1.318-1.985a.417.417 0 0 1-.013-.443c.37-.63.651-1.307.837-2.012a.418.418 0 0 1 .322-.305l2.332-.47.003-2.524-2.332-.47zm-8.091 7.501a5.768 5.768 0 1 1 0-11.536 5.768 5.768 0 0 1 0 11.536zm0-10.7a4.932 4.932 0 1 0 .001 9.863 4.932 4.932 0 0 0-.001-9.863zm0 8.945a4.013 4.013 0 1 1 0-8.027 4.013 4.013 0 0 1 0 8.027zm0-7.19a3.176 3.176 0 1 0 0 6.353 3.176 3.176 0 0 0 0-6.353z"/></svg><svg viewBox="0 0 24 24" id="ic_category2" xmlns="http://www.w3.org/2000/svg"><path fill-rule="evenodd" d="M23.727 12.16v.013a2.8 2.8 0 0 1-1.342 1.645 2.7 2.7 0 0 1-1.128.311l-6.397 5.627a7.838 7.838 0 0 1-6.708 3.798A7.847 7.847 0 0 1 5.781 8.231l7.768-5.784a3.92 3.92 0 0 1 7.488 2.158l1.685 4.579a2.734 2.734 0 0 1 1.122 2.208c0 .26-.039.519-.117.768zm-3.504 1.833a2.657 2.657 0 0 1-.741-.386l-3.559 3.131a7.766 7.766 0 0 1-.273 1.279l4.573-4.024zM1.09 15.707a7.063 7.063 0 0 0 12.739 4.201A7.06 7.06 0 1 0 6.084 8.956a7.036 7.036 0 0 0-4.994 6.751zM13.267 3.633L7.548 7.892c.2-.016.4-.031.604-.031.235 0 .471.015.701.036l4.456-3.32a3.805 3.805 0 0 1-.057-.639c0-.103.007-.204.015-.305zm.266 1.756L9.931 8.072a7.854 7.854 0 0 1 6.063 7.557l2.926-2.574a2.733 2.733 0 0 1 1.164-4.214l-.627-1.718a3.896 3.896 0 0 1-2.282.738 3.927 3.927 0 0 1-3.642-2.472zm3.642-4.59a3.138 3.138 0 1 0 0 6.278 3.138 3.138 0 0 0 0-6.278zm3.46 4.985a3.97 3.97 0 0 1-.549.775l.769 2.1c.288-.024.578-.004.86.061l-1.08-2.936zm1.542 3.97a1.95 1.95 0 0 0-1.497-.278 1.967 1.967 0 0 0-1.543 1.916 1.965 1.965 0 0 0 2.877 1.734c.466-.247.814-.673.963-1.18.056-.179.084-.366.083-.554a1.96 1.96 0 0 0-.883-1.638zm-1.079 2.815a1.166 1.166 0 0 1-.587-.163l-.017-.009a1.602 1.602 0 0 1-.1-.068l-.016-.013a1.173 1.173 0 0 1 .72-2.101 1.177 1.177 0 0 1 0 2.354zm0-1.569a.392.392 0 1 0 0 .784.392.392 0 0 0 0-.784zm-3.923-4.708a2.354 2.354 0 1 1 0-4.708 2.354 2.354 0 0 1 0 4.708zm0-3.923a1.568 1.568 0 1 0-.001 3.137 1.568 1.568 0 0 0 .001-3.137zm0 1.961a.392.392 0 1 1 0-.784.392.392 0 0 1 0 .784zm-3.531 11.377A5.492 5.492 0 0 1 8.152 21.2a5.499 5.499 0 0 1-5.493-5.493 5.493 5.493 0 0 1 10.985 0zm-10.2 0a4.708 4.708 0 1 0 9.415 0 4.708 4.708 0 0 0-9.415 0zm5.1-3.138a.391.391 0 1 1-.783.001.391.391 0 0 1 .783-.001zm1.569 3.138a1.961 1.961 0 1 1-3.923.001 1.961 1.961 0 0 1 3.923-.001zm-3.138 0a1.177 1.177 0 1 0 2.354 0 1.177 1.177 0 0 0-2.354 0zm-1.32-1.941a.393.393 0 1 1 .556-.555.393.393 0 0 1-.556.555zM5.013 16.1a.393.393 0 1 1 .002-.786.393.393 0 0 1-.002.786zm.92 1.435a.392.392 0 1 1 0 .784.392.392 0 0 1 0-.784zm2.219.919a.392.392 0 1 1 0 .784.392.392 0 0 1 0-.784zm2.497-.805a.392.392 0 1 1-.555 0 .393.393 0 0 1 .555 0zm.641-2.334a.393.393 0 1 1 0 .786.393.393 0 0 1 0-.786zm-1.196-1.549a.393.393 0 1 1 .556-.555.393.393 0 0 1-.556.555z"/></svg><svg viewBox="0 0 22 19" id="ic_category3" xmlns="http://www.w3.org/2000/svg"><path fill-rule="evenodd" d="M21.99 16.399v.828c0 .684-.556 1.241-1.241 1.241H2.05a1.243 1.243 0 0 1-1.241-1.241v-.828c0-.684.557-1.241 1.241-1.241V6.057A1.243 1.243 0 0 1 .809 4.816v-.827c0-.685.557-1.241 1.241-1.241h1.49V1.507c0-.685.556-1.242 1.241-1.242h1.655c.684 0 1.241.557 1.241 1.242v1.241h7.446V1.507c0-.685.557-1.242 1.241-1.242h1.655c.684 0 1.241.557 1.241 1.242v1.241h1.489c.685 0 1.241.556 1.241 1.241v.827c0 .684-.556 1.241-1.241 1.241v9.101c.685 0 1.241.557 1.241 1.241zM6.849 1.507a.413.413 0 0 0-.413-.414H4.781a.414.414 0 0 0-.414.414v1.241h2.482V1.507zm11.584 0a.414.414 0 0 0-.414-.414h-1.655a.414.414 0 0 0-.414.414v1.241h2.483V1.507zm2.73 3.309v-.827a.414.414 0 0 0-.414-.414H2.05a.413.413 0 0 0-.413.414v.827c0 .228.185.414.413.414h18.699a.415.415 0 0 0 .414-.414zM2.878 6.057v9.101h17.044V6.057H2.878zm-.828 9.929a.413.413 0 0 0-.413.413v.828c0 .228.185.413.413.413H20.749a.414.414 0 0 0 .414-.413v-.828a.414.414 0 0 0-.414-.413H2.05zm15.555-4.965h-2.482a.414.414 0 1 1 0-.827h2.482a.414.414 0 1 1 0 .827zm-6.702 3.144a.412.412 0 0 1-.74-.306l.371-2.601-1.388-.694a.413.413 0 0 1-.151-.61l2.068-2.896a.414.414 0 0 1 .75.24v2.227l1.427.713a.413.413 0 0 1 .146.618l-2.483 3.309zm.312-4.015a.414.414 0 0 1-.229-.37V8.589l-1.037 1.452 1.222.61c.159.08.25.253.225.429l-.186 1.297 1.216-1.621-1.211-.606zm-3.538.871h-.828v.828a.414.414 0 1 1-.827 0v-.828h-.828a.413.413 0 0 1 0-.827h.828v-.827a.414.414 0 1 1 .827 0v.827h.828a.413.413 0 0 1 0 .827z"/></svg><svg viewBox="0 0 24 16" id="ic_category4" xmlns="http://www.w3.org/2000/svg"><path fill-rule="evenodd" d="M23.513 15.264H12.404c-4.771 0-11.491-2.26-11.491-7.278S7.633.708 12.404.71c5.112 0 8.044 2.653 8.044 7.278v.037a3.425 3.425 0 0 0 3.065 1.877c.211 0 .383.171.383.383v4.596a.383.383 0 0 1-.383.383zM12.404 1.474c-4.325 0-10.725 2.069-10.725 6.512 0 4.444 6.4 6.512 10.725 6.512 4.693 0 7.278-2.313 7.278-6.512s-2.585-6.512-7.278-6.512zM23.13 10.65a4.251 4.251 0 0 1-2.769-1.407c-.325 2.508-1.64 4.31-3.806 5.255h6.575V10.65zm-11.007 3.082c-4.019 0-9.678-1.783-9.678-5.746 0-3.963 5.659-5.745 9.678-5.745 4.317 0 6.793 2.094 6.793 5.745 0 3.652-2.476 5.746-6.793 5.746zm6.027-5.746c0-4.332-3.776-4.979-6.027-4.979-3.594 0-8.912 1.582-8.912 4.979 0 3.397 5.318 4.98 8.912 4.98 2.251 0 6.027-.647 6.027-4.98z"/></svg><svg viewBox="0 0 25 25" id="ic_category5" xmlns="http://www.w3.org/2000/svg"><path fill-rule="evenodd" d="M12.574 24.051C6.134 24.051.913 18.83.913 12.39.913 5.949 6.134.728 12.574.728c6.438.007 11.655 5.224 11.662 11.662 0 6.44-5.221 11.661-11.662 11.661zM23.037 9.397l-.73.238-.241-.739.734-.238a10.853 10.853 0 0 0-1.198-2.342l-.622.451-.457-.629.617-.448a10.936 10.936 0 0 0-1.862-1.862l-.448.617-.629-.457.451-.622a10.89 10.89 0 0 0-2.346-1.2l-.24.732-.738-.241.237-.73a10.815 10.815 0 0 0-2.602-.412v.768h-.777v-.768c-.882.031-1.756.17-2.604.414l.238.73-.739.241-.238-.734c-.828.302-1.615.704-2.345 1.196l.45.622-.629.457-.448-.617a11.009 11.009 0 0 0-1.862 1.862l.621.448-.457.629-.622-.451a10.845 10.845 0 0 0-1.2 2.346l.732.24-.241.738-.73-.237a10.815 10.815 0 0 0-.412 2.602h.768v.777H1.7c.031.882.17 1.756.413 2.604l.731-.237.241.738-.734.238a10.86 10.86 0 0 0 1.196 2.344l.622-.451.457.629-.617.449a10.936 10.936 0 0 0 1.862 1.862l.448-.618.629.457-.451.622c.73.494 1.518.897 2.346 1.2l.24-.733.738.24-.237.731c.847.242 1.721.38 2.602.411v-.768h.777v.768a10.83 10.83 0 0 0 2.604-.411l-.238-.731.739-.24.238.733a10.852 10.852 0 0 0 2.345-1.198l-.451-.622.629-.457.449.617a10.966 10.966 0 0 0 1.86-1.863l-.617-.449.457-.629.622.451c.494-.73.896-1.518 1.2-2.345l-.734-.238.241-.739.73.237c.243-.847.381-1.721.412-2.602h-.768v-.777h.768a10.83 10.83 0 0 0-.412-2.604zM12.574 20.942a8.551 8.551 0 0 1-8.551-8.552 8.551 8.551 0 0 1 8.551-8.552 8.561 8.561 0 0 1 8.552 8.552 8.552 8.552 0 0 1-8.552 8.552zm0-16.327a7.775 7.775 0 0 0 0 15.549 7.784 7.784 0 0 0 7.775-7.774 7.775 7.775 0 0 0-7.775-7.775zm0 14.383a6.609 6.609 0 0 1 0-13.217 6.617 6.617 0 0 1 6.609 6.609 6.609 6.609 0 0 1-6.609 6.608zm2.289-1.247h.001a5.844 5.844 0 0 0 2.094-1.531l-2.08-1.269a.39.39 0 0 0-.581.422l.566 2.378zM8.189 16.22a5.86 5.86 0 0 0 2.096 1.531l.564-2.378a.388.388 0 0 0-.58-.422L8.188 16.22h.001zm-.613-6.817a5.777 5.777 0 0 0-.806 2.467l2.434-.197a.388.388 0 0 0 .222-.683l-1.85-1.587zm3.7-2.693l.94 2.254a.388.388 0 0 0 .717 0l.939-2.254a5.663 5.663 0 0 0-2.596 0zm6.297 2.693l-1.85 1.587a.389.389 0 0 0 .221.682l2.435.197a5.772 5.772 0 0 0-.806-2.466zm.82 3.247l-2.51-.203a1.167 1.167 0 0 1-.665-2.048l1.91-1.64a5.854 5.854 0 0 0-2.509-1.823l-.969 2.326a1.166 1.166 0 0 1-2.154 0l-.968-2.326a5.854 5.854 0 0 0-2.509 1.823l1.912 1.64a1.167 1.167 0 0 1-.664 2.048l-2.51.203a5.79 5.79 0 0 0 .955 2.951l2.151-1.314a1.167 1.167 0 0 1 1.742 1.266l-.583 2.452h.001a5.696 5.696 0 0 0 3.102 0l-.583-2.452a1.165 1.165 0 0 1 1.742-1.266l2.154 1.314a5.79 5.79 0 0 0 .955-2.951zm-5.819 1.295a1.555 1.555 0 1 1 .002-3.11 1.555 1.555 0 0 1-.002 3.11zm0-2.333a.777.777 0 1 0 0 1.555.777.777 0 0 0 0-1.555z"/></svg><svg viewBox="0 0 25 17" id="ic_category6" xmlns="http://www.w3.org/2000/svg"><path fill-rule="evenodd" d="M23.446 4.102c.655 0 1.186-.531 1.186-1.186v-.791c0-.655-.531-1.186-1.186-1.186h-4.744c-.655 0-1.186.531-1.186 1.186v.791c0 .655.531 1.186 1.186 1.186h1.186v1.867L18.874 7.66h-4.887l-5.455-.78-2.52-1.079-.284-1.699h1.115c.655 0 1.186-.531 1.186-1.186v-.791c0-.655-.531-1.186-1.186-1.186H2.099C1.444.939.913 1.47.913 2.125v.791c0 .655.531 1.186 1.186 1.186h1.114l-.318 1.911a.16.16 0 0 0 0 .031c-.003.011-.004.023-.006.034v5.535l.007.034v.031l.317 1.911H2.099c-.655 0-1.186.531-1.186 1.186v.791c0 .655.531 1.186 1.186 1.186h4.744c.655 0 1.186-.531 1.186-1.186v-.791c0-.655-.531-1.186-1.186-1.186H5.728l.283-1.7 2.52-1.079 5.456-.779h4.887l1.014 1.691v1.867h-1.186c-.655 0-1.186.531-1.186 1.186v.791c0 .655.531 1.186 1.186 1.186h4.744c.655 0 1.186-.531 1.186-1.186v-.791c0-.655-.531-1.186-1.186-1.186H22.26V4.102h1.186zM2.099 3.311a.395.395 0 0 1-.396-.395v-.791c0-.218.177-.395.396-.395h4.744c.218 0 .395.177.395.395v.791a.395.395 0 0 1-.395.395H2.099zM5.19 5.683H3.752l.263-1.581h.911l.264 1.581zm1.653 8.697c.218 0 .395.177.395.395v.791a.395.395 0 0 1-.395.395H2.099a.395.395 0 0 1-.396-.395v-.791c0-.218.177-.395.396-.395h4.744zm-3.091-2.372H5.19l-.264 1.581h-.911l-.263-1.581zm4.277-1.842l-2.451 1.051H3.68V6.474h1.898l2.451 1.051v2.641zm5.534-.873l-4.744.678V7.72l4.744.678v.895zm5.139-.052h-4.348V8.45h4.348v.791zm.791.286V8.164l1.014-1.69h.963v4.743h-.963l-1.014-1.69zm1.186-3.844V4.102h.791v1.581h-.791zm.791 6.325v1.581h-.791v-1.581h.791zm1.976 2.372c.218 0 .395.177.395.395v.791a.395.395 0 0 1-.395.395h-4.744a.395.395 0 0 1-.395-.395v-.791c0-.218.177-.395.395-.395h4.744zM18.702 3.311a.395.395 0 0 1-.395-.395v-.791c0-.218.177-.395.395-.395h4.744c.218 0 .395.177.395.395v.791a.395.395 0 0 1-.395.395h-4.744z"/></svg><svg viewBox="0 0 24 15" id="ic_category7" xmlns="http://www.w3.org/2000/svg"><path fill-rule="evenodd" d="M22.765 4.111c-.79.51-1.83.389-2.481-.289l-2.206 1.224a1.003 1.003 0 0 0-.48.624l-.185.744a.979.979 0 0 1 .713.478h3.086a1.475 1.475 0 0 1 0 2.95h-3.086a.98.98 0 0 1-.846.491h-.23a10.713 10.713 0 0 1 2.192 3.869l.002.066a.484.484 0 0 1 .061.227.497.497 0 0 1-.497.497H4.919a.498.498 0 0 1-.497-.497c0-.087.028-.164.067-.235a10.704 10.704 0 0 1 2.204-3.927h-.229a.978.978 0 0 1-.846-.491H2.531a1.476 1.476 0 0 1 0-2.95h3.087a.979.979 0 0 1 .712-.478l-.186-.75a.992.992 0 0 0-.477-.616L3.46 3.822A1.966 1.966 0 1 1 2.04.502c1.086 0 1.966.881 1.966 1.967a1.94 1.94 0 0 1-.07.491l2.206 1.229c.473.263.819.708.955 1.232l.246.98h1.426a3.433 3.433 0 0 1 6.209 0h1.426l.241-.974c.136-.528.483-.976.959-1.242l2.204-1.225a1.94 1.94 0 0 1-.07-.491 1.96 1.96 0 0 1 3.78-.739c.352.872.036 1.87-.753 2.381zm-4.502 4.748h2.949a.492.492 0 1 0 0-.984h-2.949v.984zM5.481 7.875h-2.95a.491.491 0 0 0 0 .984h2.95v-.984zM2.04 1.486a.984.984 0 1 0 0 1.967.984.984 0 0 0 0-1.967zm6.43 5.898H6.464V9.35h2.303a3.406 3.406 0 0 1-.336-1.475c.001-.164.014-.328.039-.491zm-.363 2.949c-.401.326-1.687 1.513-2.476 3.664h12.485c-.789-2.152-2.077-3.337-2.479-3.664h-1.361a3.43 3.43 0 0 1-4.808 0H8.107zm3.765-4.915a2.457 2.457 0 1 0-.001 4.915 2.457 2.457 0 0 0 .001-4.915zm5.408 1.966h-2.006c.025.163.038.327.039.491 0 .511-.115 1.015-.337 1.475h2.304V7.384zm4.424-5.898a.983.983 0 1 0 0 1.966.983.983 0 0 0 0-1.966zm-9.832 6.881a.492.492 0 1 1 0-.983.492.492 0 0 1 0 .983z"/></svg><svg viewBox="0 0 23 23" id="ic_category8" xmlns="http://www.w3.org/2000/svg"><path fill-rule="evenodd" d="M22.033 11.095c-.383.87-.994 1.67-1.819 2.376l-.315.27v3.621c.576.515.902 1.235.902 2.007a2.69 2.69 0 0 1-1.053 2.143 2.697 2.697 0 0 1-1.656.563 2.69 2.69 0 0 1-2.597-1.937c-.286-1.02.003-2.045.755-2.74l-.133-.735h-.73v1.353a.45.45 0 0 1-.451.451h-2.255a.451.451 0 0 1-.452-.451v-.902c0-.249.202-.451.452-.451v-.451a.451.451 0 0 1-.452-.451v-.903c0-.249.202-.451.452-.451v-.451a.45.45 0 0 1-.452-.451v-.902c0-.249.202-.451.452-.451h2.255a.45.45 0 0 1 .451.451v1.353h.344c.048-.387.194-.758.451-1.066a2.057 2.057 0 0 1 1.403-.731l.969-.83a3.835 3.835 0 0 0 1.2-3.978c-.299-1.081-1.007-1.958-1.893-2.347a1.63 1.63 0 0 0-.253-.071h-.003c-1.208 0-2.218-1.011-2.218-2.254 0-.154.016-.305.046-.451H8.124a2.258 2.258 0 0 1-2.21 2.707c0 .008-.251.098-.344.143-.821.392-1.437 1.115-1.737 2.034-.336 1.034-.221 2.198.316 3.193.195.361.482.705.854 1.024l.969.831a2.054 2.054 0 0 1 1.403.73c.256.308.403.679.451 1.066h.343v-1.353c0-.249.202-.451.451-.451h2.256a.45.45 0 0 1 .451.451v.902a.45.45 0 0 1-.451.451v.451a.45.45 0 0 1 .451.452v.902a.45.45 0 0 1-.451.451v.451a.45.45 0 0 1 .451.451v.902a.45.45 0 0 1-.451.451H8.62a.451.451 0 0 1-.451-.451v-1.353H7.44l-.133.736a2.67 2.67 0 0 1 .862 1.97c0 .845-.383 1.626-1.053 2.143a2.692 2.692 0 0 1-1.655.563 2.691 2.691 0 0 1-2.598-1.937c-.29-1.037.013-2.08.795-2.776v-3.621l-.316-.271c-.824-.705-1.435-1.505-1.818-2.375-1.269-2.891-.352-6.205 2.175-8.01a2.005 2.005 0 0 1-.041-.406A2.258 2.258 0 0 1 5.914.424c.734 0 1.381.358 1.793.902h8.143a2.247 2.247 0 0 1 1.793-.902 2.258 2.258 0 0 1 2.256 2.255c0 .135-.013.27-.041.406 2.526 1.805 3.444 5.119 2.175 8.01zm-7.549 1.959h-1.353a.45.45 0 0 1 .451.451v1.353a.451.451 0 0 1-.451.451c.249 0 .451.202.451.451v1.353a.45.45 0 0 1-.451.451h1.353v-4.51zm1.303 1.804h-.401v.902h.565l-.164-.902zm-6.714 2.706h1.353a.45.45 0 0 1-.451-.451V15.76c0-.249.202-.451.451-.451a.451.451 0 0 1-.451-.451v-1.353c0-.249.202-.451.451-.451H9.073v4.51zm-.902-1.804v-.902H7.77l-.164.902h.565zM5.917 1.326c-.746 0-1.353.607-1.353 1.353 0 .142.027.288.084.449a.451.451 0 0 1-.182.529c-2.357 1.514-3.245 4.49-2.111 7.074.327.746.858 1.437 1.578 2.054l.474.406a.454.454 0 0 1 .157.342v4.042a.449.449 0 0 1-.179.359c-.61.461-.858 1.212-.649 1.959a1.77 1.77 0 0 0 1.237 1.215 1.824 1.824 0 0 0 1.594-.31c.447-.345.702-.866.702-1.429 0-.565-.263-1.088-.722-1.435a.449.449 0 0 1-.172-.44l.556-3.066c-.001-.007-.005-.014-.005-.021 0-.021.009-.038.012-.057a1.15 1.15 0 0 0-.253-.882 1.152 1.152 0 0 0-.886-.414.452.452 0 0 1-.293-.109l-1.087-.931a4.555 4.555 0 0 1-1.06-1.281c-.653-1.211-.792-2.633-.379-3.9.377-1.157 1.159-2.069 2.203-2.569.004-.002.517-.231.734-.231a1.354 1.354 0 0 0 0-2.707zm13.174 2.331a.451.451 0 0 1-.182-.529 1.33 1.33 0 0 0 .084-.449 1.354 1.354 0 1 0-1.353 1.354c.164 0 .481.101.58.144 1.132.497 2.028 1.593 2.4 2.933.501 1.811-.066 3.69-1.483 4.904l-1.086.931a.453.453 0 0 1-.294.109 1.152 1.152 0 0 0-1.133 1.359l.558 3.081a.449.449 0 0 1-.172.44 1.8 1.8 0 0 0-.649 1.959c.165.585.65 1.062 1.237 1.215a1.825 1.825 0 0 0 1.595-.311 1.792 1.792 0 0 0-.021-2.863.449.449 0 0 1-.179-.359v-4.042c0-.131.058-.256.157-.342l.473-.406h.001c.72-.617 1.251-1.308 1.578-2.054 1.134-2.584.246-5.56-2.111-7.074zM17.64 3.13a.451.451 0 1 1 0-.902.451.451 0 0 1 0 .902zm-11.723 0a.451.451 0 1 1 0-.902.451.451 0 0 1 0 .902z"/></svg><svg viewBox="0 0 24 14" id="ic_category9" xmlns="http://www.w3.org/2000/svg"><path fill-rule="evenodd" d="M22.753 13.294h-3.447v-.383a4.6 4.6 0 0 0-4.596-4.596 4.6 4.6 0 0 0-4.596 4.596v.383H2.263l-1.149-1.532H.156v-.383c0-3.918 2.113-7.558 5.514-9.501L8.48.272h.868v.383c0 .211.172.383.383.383h.676c.501 0 1.002-.119 1.451-.343a4.03 4.03 0 0 1 1.794-.423h9.101a1.15 1.15 0 0 1 1.149 1.149v10.724a1.15 1.15 0 0 1-1.149 1.149zm-13.391-.766a5.369 5.369 0 0 1 5.348-4.979 5.37 5.37 0 0 1 5.349 4.979h.76c-.199-3.201-2.859-5.745-6.109-5.745-3.249 0-5.909 2.544-6.108 5.745h.76zm-2.886 0h.957l-.574-.766h-.958l.575.766zm-1.915 0h.957l-.574-.766h-.958l.575.766zm-1.915 0h.957l-.574-.766h-.958l.575.766zm20.49-11.107a.384.384 0 0 0-.383-.383h-9.101c-.502 0-1.003.118-1.452.342a4.03 4.03 0 0 1-1.793.424h-.676a1.15 1.15 0 0 1-1.077-.749L6.05 2.543a10.199 10.199 0 0 0-5.12 8.453h6.312l.66.881c.502-3.312 3.359-5.86 6.808-5.86 3.672 0 6.674 2.888 6.875 6.511h1.168a.384.384 0 0 0 .383-.383V1.421zm-5.362.383h4.596v2.298h-4.596V1.804zm.766 1.532h3.064V2.57H18.54v.766zM2.652 9.545l-.748-.163A9.43 9.43 0 0 1 6.43 3.208l1.579-.903.38.665-1.579.903a8.667 8.667 0 0 0-4.158 5.672z"/></svg></svg>