<svg 
 xmlns="http://www.w3.org/2000/svg"
 xmlns:xlink="http://www.w3.org/1999/xlink"
 width="26px" height="26px">
<path fill-rule="evenodd"  fill="rgb(128, 128, 128)"
 d="M24.545,25.663 C24.495,25.861 24.321,26.000 24.121,26.000 C24.103,26.000 24.086,25.999 24.068,25.997 L2.141,23.307 C1.979,23.287 1.841,23.177 1.783,23.022 C0.627,19.657 0.024,16.118 0.000,12.552 C0.000,9.607 0.949,-0.000 13.157,-0.000 C17.380,-0.000 20.794,1.555 23.028,4.498 C26.385,8.921 26.909,16.239 24.545,25.663 ZM22.335,5.048 C20.273,2.331 17.099,0.896 13.157,0.896 C10.276,0.896 0.877,1.737 0.877,12.552 C0.913,15.918 1.466,19.258 2.514,22.450 L23.790,25.058 C23.901,24.608 23.999,24.165 24.097,23.724 C22.603,23.604 17.510,23.162 13.086,22.407 L13.231,21.524 C17.748,22.292 22.972,22.735 24.283,22.839 C24.402,22.244 24.509,21.658 24.603,21.082 C24.242,21.093 23.878,21.100 23.507,21.100 C17.411,21.100 10.087,19.732 10.007,19.716 C7.156,19.301 5.701,17.492 5.701,14.345 C5.701,11.349 7.767,9.414 10.964,9.414 C10.981,9.414 10.998,9.415 11.015,9.417 C11.092,9.426 18.611,10.318 24.611,10.197 C24.227,8.332 23.450,6.575 22.335,5.048 ZM10.939,10.310 C8.248,10.320 6.578,11.864 6.578,14.345 C6.578,17.050 7.713,18.477 10.149,18.832 C10.251,18.851 18.549,20.400 24.744,20.182 C25.234,17.173 25.250,14.104 24.792,11.090 C18.885,11.228 11.441,10.370 10.939,10.310 ZM20.741,17.165 L22.057,15.821 L22.677,16.455 L21.361,17.799 L20.741,17.165 ZM19.425,15.372 L21.179,13.579 L21.800,14.213 L20.045,16.006 L19.425,15.372 ZM16.793,15.821 L18.548,14.028 L19.168,14.662 L17.414,16.455 L16.793,15.821 ZM10.525,17.931 C8.830,17.931 7.455,16.526 7.455,14.793 C7.455,13.060 8.830,11.655 10.525,11.655 C12.220,11.657 13.593,13.061 13.595,14.793 C13.595,16.526 12.221,17.931 10.525,17.931 ZM10.525,12.552 C9.314,12.552 8.333,13.555 8.333,14.793 C8.333,16.031 9.314,17.035 10.525,17.035 C11.736,17.033 12.717,16.030 12.718,14.793 C12.718,13.555 11.736,12.552 10.525,12.552 ZM10.525,16.138 C9.799,16.138 9.210,15.536 9.210,14.793 C9.210,14.050 9.799,13.448 10.525,13.448 C11.252,13.448 11.841,14.050 11.841,14.793 C11.841,15.536 11.252,16.138 10.525,16.138 ZM10.525,14.345 C10.283,14.345 10.087,14.545 10.087,14.793 C10.087,15.041 10.283,15.241 10.525,15.241 C10.767,15.241 10.964,15.041 10.964,14.793 C10.964,14.545 10.767,14.345 10.525,14.345 ZM15.788,4.931 L16.665,4.931 L16.665,5.828 L15.788,5.828 L15.788,4.931 ZM14.034,5.828 L14.911,5.828 L14.911,6.724 L14.034,6.724 L14.034,5.828 ZM8.358,3.566 C5.192,4.841 3.413,7.276 3.068,10.804 L2.195,10.714 C3.103,1.434 13.077,1.788 13.176,1.793 L13.138,2.690 C11.505,2.675 9.884,2.972 8.358,3.566 ZM4.824,14.793 L3.947,14.793 L3.947,13.896 L4.824,13.896 L4.824,14.793 ZM4.824,15.690 C4.824,15.856 4.904,19.806 9.721,20.627 L9.576,21.511 C4.011,20.563 3.947,15.738 3.947,15.690 L4.386,15.690 L4.824,15.690 Z"/>
</svg>