<svg 
 xmlns="http://www.w3.org/2000/svg"
 xmlns:xlink="http://www.w3.org/1999/xlink"
 width="37px" height="22px">
<path fill-rule="evenodd"  fill="rgb(128, 128, 128)"
 d="M30.594,11.579 C32.026,11.578 33.400,12.125 34.413,13.100 C36.526,15.133 36.530,18.432 34.423,20.469 C32.316,22.506 28.895,22.511 26.782,20.478 C24.670,18.446 24.666,15.147 26.773,13.109 L25.770,11.900 C24.263,13.108 23.391,14.900 23.391,16.790 L23.391,17.947 C23.391,18.267 23.122,18.526 22.790,18.526 L10.478,18.526 C10.125,19.494 9.483,20.339 8.634,20.955 C6.255,22.682 2.875,22.222 1.084,19.927 C-0.706,17.633 -0.229,14.373 2.150,12.646 C4.529,10.920 7.909,11.380 9.700,13.674 L12.585,12.879 L12.585,10.421 L5.982,10.421 C5.650,10.421 5.382,10.162 5.382,9.842 L5.382,8.105 L1.780,8.105 C1.495,8.105 1.249,7.912 1.192,7.642 L0.591,4.747 C0.583,4.709 0.579,4.670 0.579,4.631 C0.579,4.312 0.848,4.053 1.180,4.053 L7.183,4.053 C7.428,4.053 7.649,4.197 7.740,4.417 L8.790,6.947 L16.416,6.947 L18.048,3.794 C18.150,3.597 18.360,3.473 18.588,3.474 L24.959,3.474 L24.022,0.762 C24.001,0.703 23.991,0.641 23.991,0.579 C23.991,0.259 24.260,-0.000 24.591,-0.000 L26.993,-0.000 C31.127,-0.000 33.596,2.164 33.596,5.789 L33.596,9.842 C33.596,10.162 33.327,10.421 32.996,10.421 L29.994,10.421 C28.861,10.421 27.747,10.704 26.761,11.242 L27.713,12.389 C28.574,11.860 29.573,11.579 30.594,11.579 ZM6.774,5.211 L1.912,5.211 L2.272,6.947 L7.495,6.947 L6.774,5.211 ZM12.585,8.105 L6.582,8.105 L6.582,9.263 L12.585,9.263 L12.585,8.105 ZM19.789,17.368 L22.190,17.368 L22.190,15.631 C22.190,14.672 21.384,13.895 20.389,13.895 L19.789,13.895 L19.789,17.368 ZM13.786,17.368 L18.588,17.368 L18.588,13.895 L13.786,13.895 L13.786,17.368 ZM5.367,12.737 C3.047,12.741 1.169,14.558 1.172,16.796 C1.176,19.035 3.061,20.846 5.382,20.842 C7.003,20.840 8.479,19.939 9.174,18.526 L7.778,18.526 C6.820,19.760 5.027,20.051 3.703,19.187 C2.333,18.294 1.974,16.498 2.900,15.176 C3.827,13.855 5.689,13.509 7.059,14.402 L8.443,14.021 C7.647,13.200 6.533,12.735 5.367,12.737 ZM4.206,15.484 C4.132,15.546 4.062,15.613 3.999,15.685 C3.367,16.409 3.462,17.490 4.213,18.100 C4.195,18.051 4.184,18.000 4.181,17.947 L4.181,15.631 C4.183,15.581 4.191,15.532 4.206,15.484 ZM12.585,14.083 L5.382,16.068 L5.382,17.368 L12.585,17.368 L12.585,14.083 ZM25.192,4.631 L18.959,4.631 L17.325,7.785 C17.223,7.981 17.015,8.106 16.788,8.105 L13.786,8.105 L13.786,10.421 L21.256,10.421 C22.182,8.953 23.557,7.797 25.192,7.114 L25.192,4.631 ZM32.395,5.789 C32.395,5.401 32.357,5.013 32.280,4.631 L31.195,4.631 L31.195,6.947 L32.395,6.947 L32.395,5.789 ZM29.994,9.263 L32.395,9.263 L32.395,8.105 L30.594,8.105 C30.263,8.105 29.994,7.846 29.994,7.526 L29.994,4.053 C29.994,3.733 30.263,3.474 30.594,3.474 L31.886,3.474 C30.866,1.514 28.533,1.158 26.993,1.158 L25.424,1.158 L26.362,3.870 C26.377,3.930 26.387,3.991 26.392,4.053 L26.392,7.526 C26.392,7.792 26.205,8.023 25.938,8.088 C25.919,8.093 23.741,8.667 22.104,11.298 C21.996,11.472 21.800,11.579 21.590,11.579 L13.786,11.579 L13.786,12.737 L20.389,12.737 C21.336,12.739 22.225,13.174 22.787,13.908 C23.997,11.099 26.840,9.267 29.994,9.263 ZM26.394,16.801 C26.397,19.035 28.277,20.845 30.594,20.842 C31.346,20.843 32.085,20.650 32.733,20.282 C34.733,19.146 35.399,16.662 34.222,14.733 C33.044,12.804 30.469,12.162 28.469,13.297 L29.235,14.223 C29.654,14.010 30.120,13.898 30.594,13.895 C32.252,13.895 33.596,15.191 33.596,16.790 C33.596,18.388 32.252,19.684 30.594,19.684 C28.937,19.684 27.593,18.388 27.593,16.790 C27.597,16.115 27.847,15.464 28.299,14.950 L27.533,14.024 C26.800,14.775 26.392,15.769 26.394,16.801 ZM30.125,17.151 L29.068,15.877 C28.886,16.159 28.791,16.485 28.794,16.817 C28.802,17.784 29.621,18.562 30.623,18.554 C31.626,18.546 32.432,17.756 32.424,16.789 C32.416,15.822 31.597,15.045 30.594,15.053 C30.394,15.054 30.196,15.088 30.008,15.154 L31.063,16.428 L30.125,17.151 ZM22.190,5.789 L23.391,5.789 L23.391,6.947 L22.190,6.947 L22.190,5.789 ZM19.789,5.789 L20.990,5.789 L20.990,6.947 L19.789,6.947 L19.789,5.789 ZM12.585,22.000 L10.785,22.000 L10.785,20.842 L12.585,20.842 L12.585,22.000 ZM20.990,22.000 L19.789,22.000 L19.789,20.842 L20.990,20.842 L20.990,22.000 ZM24.591,22.000 L22.190,22.000 L22.190,20.842 L24.591,20.842 L24.591,22.000 Z"/>
</svg>