<svg 
 xmlns="http://www.w3.org/2000/svg"
 xmlns:xlink="http://www.w3.org/1999/xlink"
 width="15px" height="20px">
<path fill-rule="evenodd"  fill="rgb(0, 142, 212)"
 d="M7.500,0.000 C3.365,0.000 0.000,3.249 0.000,7.243 C0.000,12.200 6.712,19.476 6.998,19.783 C7.266,20.072 7.734,20.071 8.002,19.783 C8.288,19.476 15.000,12.200 15.000,7.243 C15.000,3.249 11.635,0.000 7.500,0.000 ZM7.500,10.887 C5.419,10.887 3.727,9.253 3.727,7.243 C3.727,5.234 5.419,3.599 7.500,3.599 C9.581,3.599 11.273,5.234 11.273,7.243 C11.273,9.253 9.581,10.887 7.500,10.887 Z"/>
</svg>