<svg 
 xmlns="http://www.w3.org/2000/svg"
 xmlns:xlink="http://www.w3.org/1999/xlink"
 width="30px" height="22px">
<path fill-rule="evenodd"  fill="rgb(128, 128, 128)"
 d="M29.344,14.441 C28.942,14.589 28.490,14.466 28.219,14.134 C27.910,13.764 27.560,13.430 27.176,13.139 L26.674,13.892 C26.844,14.017 27.006,14.154 27.157,14.302 C27.166,14.309 27.177,14.312 27.186,14.321 C27.195,14.330 27.198,14.341 27.206,14.351 C28.925,16.093 28.929,18.892 27.217,20.640 C27.202,20.675 27.174,20.703 27.139,20.717 C26.301,21.540 25.173,22.000 23.999,22.000 L16.500,22.000 C16.223,22.000 16.000,21.776 16.000,21.500 C16.000,21.224 16.223,21.000 16.500,21.000 L21.178,21.000 C21.063,20.908 20.953,20.810 20.848,20.706 C20.839,20.698 20.827,20.695 20.818,20.687 C20.810,20.678 20.807,20.667 20.799,20.658 C19.841,19.696 19.373,18.350 19.529,17.000 L18.525,17.000 C18.523,17.029 18.517,17.056 18.515,17.085 C18.471,17.603 18.037,18.001 17.517,18.001 L12.482,18.001 C11.962,18.001 11.529,17.604 11.484,17.087 C11.482,17.058 11.474,17.030 11.474,17.000 L10.470,17.000 C10.625,18.341 10.164,19.679 9.217,20.640 C9.203,20.675 9.175,20.703 9.140,20.717 C8.301,21.540 7.174,22.000 6.000,22.000 L0.500,22.000 C0.224,22.000 -0.000,21.776 -0.000,21.500 C-0.000,21.224 0.224,21.000 0.500,21.000 L3.178,21.000 C3.064,20.908 2.954,20.810 2.849,20.706 C2.839,20.698 2.827,20.695 2.819,20.687 C2.810,20.678 2.807,20.667 2.800,20.658 C1.064,18.905 1.068,16.079 2.809,14.331 C2.813,14.327 2.814,14.323 2.818,14.319 C2.821,14.315 2.826,14.314 2.830,14.310 C3.165,13.979 3.549,13.703 3.969,13.491 L3.679,12.620 C3.541,12.693 3.401,12.771 3.259,12.856 C3.012,13.006 2.712,13.040 2.437,12.952 C2.162,12.864 1.939,12.661 1.824,12.395 L1.180,11.001 L1.000,11.001 C0.448,11.001 -0.000,10.554 -0.000,10.001 L-0.000,9.002 C-0.000,8.449 0.448,8.001 1.000,8.001 L2.293,8.001 L2.512,7.782 C4.561,5.733 7.771,5.415 10.182,7.023 L11.872,8.149 C12.705,8.706 13.686,9.002 14.688,9.002 L18.310,9.002 L19.895,6.965 L18.704,4.982 C18.636,4.993 18.568,5.000 18.499,5.002 C17.722,5.003 17.073,4.409 17.005,3.635 C16.938,2.860 17.474,2.163 18.240,2.029 C19.005,1.896 19.746,2.371 19.945,3.122 L23.363,4.261 C22.728,2.510 19.994,1.321 18.856,0.980 C18.685,0.929 18.554,0.790 18.513,0.616 C18.472,0.442 18.526,0.260 18.656,0.137 C18.786,0.014 18.972,-0.029 19.143,0.022 C19.355,0.086 24.192,1.572 24.485,4.702 L27.088,6.191 C27.315,6.322 27.524,6.484 27.709,6.670 C27.720,6.679 27.730,6.687 27.740,6.698 C27.960,6.921 28.144,7.177 28.286,7.457 L29.682,10.248 C29.890,10.666 29.998,11.126 29.999,11.593 L29.999,13.501 C30.004,13.922 29.741,14.299 29.344,14.441 ZM1.000,9.002 L1.000,10.001 L1.250,10.001 L2.000,9.002 L1.000,9.002 ZM18.499,3.002 C18.223,3.002 17.999,3.226 17.999,3.502 C17.999,3.778 18.223,4.002 18.499,4.002 C18.776,4.002 18.999,3.778 18.999,3.502 C18.999,3.226 18.776,3.002 18.499,3.002 ZM20.540,17.992 C20.622,18.579 20.854,19.135 21.212,19.607 C21.407,19.457 21.682,19.475 21.856,19.649 C22.030,19.822 22.048,20.097 21.899,20.292 C22.370,20.649 22.923,20.879 23.507,20.962 C23.524,20.703 23.739,20.501 23.999,20.501 C24.259,20.501 24.475,20.703 24.491,20.962 C25.077,20.880 25.632,20.649 26.104,20.291 C25.957,20.096 25.975,19.823 26.148,19.650 C26.321,19.478 26.594,19.459 26.789,19.607 C27.146,19.135 27.377,18.580 27.460,17.994 C27.201,17.977 26.999,17.762 26.999,17.502 C26.999,17.242 27.201,17.027 27.460,17.010 C27.378,16.425 27.148,15.871 26.791,15.400 C26.597,15.554 26.319,15.537 26.144,15.362 C25.969,15.187 25.953,14.908 26.106,14.714 C25.634,14.356 25.078,14.125 24.491,14.042 C24.475,14.301 24.259,14.503 23.999,14.503 C23.739,14.503 23.524,14.301 23.507,14.042 C22.922,14.124 22.367,14.355 21.896,14.712 C22.048,14.907 22.031,15.185 21.856,15.359 C21.681,15.534 21.404,15.551 21.209,15.399 L21.209,15.397 C20.852,15.869 20.622,16.423 20.540,17.008 C20.799,17.025 21.002,17.240 21.002,17.501 C21.002,17.761 20.799,17.976 20.540,17.992 ZM19.762,16.001 C19.983,15.375 20.341,14.805 20.808,14.333 C20.811,14.329 20.813,14.324 20.816,14.321 C20.820,14.317 20.825,14.316 20.828,14.313 C22.138,13.006 24.117,12.638 25.809,13.386 L26.334,12.597 C25.615,12.213 24.814,12.008 23.999,12.001 C21.544,12.012 19.390,13.641 18.712,16.001 L19.762,16.001 ZM12.481,17.013 L17.517,17.000 C17.558,16.490 17.660,15.986 17.821,15.500 L12.176,15.500 C12.338,15.991 12.440,16.499 12.481,17.013 ZM11.289,16.001 C10.610,13.641 8.456,12.011 6.000,12.001 C5.525,12.002 5.053,12.079 4.602,12.227 L4.909,13.143 C6.431,12.752 8.047,13.192 9.159,14.302 C9.168,14.309 9.179,14.312 9.188,14.321 C9.197,14.330 9.199,14.341 9.208,14.351 C9.667,14.819 10.019,15.382 10.239,16.001 L11.289,16.001 ZM3.896,14.712 C4.048,14.907 4.031,15.185 3.856,15.359 C3.682,15.534 3.404,15.551 3.210,15.399 C2.852,15.871 2.621,16.425 2.539,17.010 C2.799,17.027 3.001,17.242 3.001,17.502 C3.001,17.763 2.799,17.978 2.539,17.994 C2.622,18.581 2.853,19.137 3.211,19.609 C3.407,19.461 3.681,19.478 3.856,19.650 C4.027,19.824 4.046,20.096 3.900,20.292 C4.370,20.649 4.924,20.879 5.508,20.962 C5.524,20.703 5.740,20.501 6.000,20.501 C6.260,20.501 6.475,20.703 6.492,20.962 C7.078,20.880 7.633,20.649 8.104,20.291 C7.957,20.096 7.976,19.823 8.148,19.650 C8.321,19.478 8.595,19.459 8.789,19.607 C9.147,19.135 9.378,18.580 9.461,17.994 C9.201,17.977 8.999,17.762 8.999,17.502 C8.999,17.242 9.201,17.027 9.461,17.010 C9.378,16.425 9.148,15.871 8.792,15.400 C8.597,15.554 8.319,15.537 8.144,15.362 C7.969,15.187 7.953,14.908 8.106,14.714 C7.634,14.356 7.078,14.125 6.492,14.042 C6.475,14.301 6.260,14.503 6.000,14.503 C5.740,14.503 5.524,14.301 5.508,14.042 C4.922,14.124 4.368,14.355 3.896,14.712 ZM14.688,10.001 C13.488,10.003 12.315,9.647 11.317,8.980 L9.628,7.854 C8.794,7.298 7.814,7.001 6.811,7.001 C5.723,7.000 4.665,7.351 3.793,8.001 L7.200,8.001 C7.495,8.002 7.783,8.088 8.029,8.251 L12.025,10.917 C12.107,10.972 12.204,11.001 12.302,11.001 L16.510,11.001 C16.664,11.001 16.810,10.929 16.905,10.807 L17.532,10.001 L14.688,10.001 ZM19.849,4.145 C19.783,4.283 19.697,4.409 19.594,4.521 L20.676,6.325 L22.780,5.122 L19.849,4.145 ZM27.393,7.905 C27.351,7.821 27.303,7.739 27.249,7.662 L25.510,8.451 L28.040,9.198 L27.393,7.905 ZM28.786,10.695 L28.649,10.422 L25.217,9.418 C24.810,9.300 24.522,8.939 24.497,8.516 C24.473,8.093 24.717,7.702 25.107,7.536 L26.399,6.952 L23.999,5.577 L20.833,7.387 L17.695,11.422 C17.411,11.789 16.973,12.002 16.510,12.001 L12.302,12.001 C12.006,12.002 11.717,11.915 11.471,11.751 L7.477,9.085 C7.395,9.031 7.298,9.002 7.200,9.002 L3.250,9.002 L2.079,10.562 L2.738,11.989 C3.713,11.363 4.842,11.021 6.000,11.001 C8.419,11.011 10.634,12.358 11.755,14.501 L18.242,14.501 C19.231,12.546 21.154,11.236 23.335,11.031 C25.516,10.826 27.650,11.756 28.986,13.493 L28.997,11.595 C28.998,11.283 28.925,10.975 28.786,10.695 ZM8.000,17.501 C8.000,18.605 7.104,19.500 6.000,19.500 C4.895,19.500 4.000,18.605 4.000,17.501 C4.000,16.396 4.895,15.500 6.000,15.500 C7.104,15.500 8.000,16.396 8.000,17.501 ZM5.000,17.501 C5.000,18.053 5.447,18.500 6.000,18.500 C6.552,18.500 7.000,18.053 7.000,17.501 C7.000,16.948 6.552,16.501 6.000,16.501 C5.447,16.501 5.000,16.948 5.000,17.501 ZM23.999,15.500 C25.104,15.500 25.999,16.396 25.999,17.501 C25.999,18.605 25.104,19.500 23.999,19.500 C22.895,19.500 21.999,18.605 21.999,17.501 C21.999,16.396 22.895,15.500 23.999,15.500 ZM23.999,18.500 C24.552,18.500 24.999,18.053 24.999,17.501 C24.999,16.948 24.552,16.501 23.999,16.501 C23.447,16.501 22.999,16.948 22.999,17.501 C22.999,18.053 23.447,18.500 23.999,18.500 ZM11.000,21.000 L14.499,21.000 C14.776,21.000 15.000,21.224 15.000,21.500 C15.000,21.776 14.776,22.000 14.499,22.000 L11.000,22.000 C10.723,22.000 10.500,21.776 10.500,21.500 C10.500,21.224 10.723,21.000 11.000,21.000 Z"/>
</svg>