<svg 
 xmlns="http://www.w3.org/2000/svg"
 xmlns:xlink="http://www.w3.org/1999/xlink"
 width="18px" height="21px">
<path fill-rule="evenodd"  fill="rgb(0, 123, 194)"
 d="M17.854,5.488 C17.778,5.564 17.680,5.602 17.562,5.602 L16.338,5.602 L16.338,17.693 C16.338,18.399 16.139,19.009 15.740,19.523 C15.341,20.038 14.861,20.295 14.300,20.295 L3.700,20.295 C3.139,20.295 2.659,20.046 2.260,19.549 C1.861,19.051 1.661,18.450 1.661,17.744 L1.661,5.602 L0.438,5.602 C0.320,5.602 0.222,5.564 0.145,5.488 C0.069,5.411 0.031,5.313 0.031,5.194 L0.031,4.378 C0.031,4.259 0.069,4.161 0.145,4.085 C0.222,4.008 0.319,3.970 0.438,3.970 L4.375,3.970 L5.267,1.840 C5.394,1.526 5.624,1.258 5.955,1.037 C6.286,0.816 6.622,0.705 6.961,0.705 L11.038,0.705 C11.378,0.705 11.714,0.816 12.045,1.037 C12.376,1.258 12.606,1.526 12.733,1.840 L13.625,3.970 L17.562,3.970 C17.681,3.970 17.778,4.008 17.855,4.085 C17.931,4.161 17.969,4.259 17.969,4.378 L17.969,5.194 C17.969,5.313 17.931,5.411 17.854,5.488 ZM11.242,2.478 C11.183,2.401 11.111,2.354 11.026,2.337 L6.987,2.337 C6.902,2.354 6.830,2.401 6.770,2.478 L6.146,3.970 L11.854,3.970 L11.242,2.478 ZM14.708,5.602 L3.292,5.602 L3.292,17.693 C3.292,17.880 3.322,18.052 3.381,18.210 C3.441,18.367 3.502,18.482 3.566,18.554 C3.630,18.626 3.674,18.662 3.700,18.662 L14.300,18.662 C14.326,18.662 14.370,18.626 14.434,18.554 C14.497,18.482 14.559,18.367 14.619,18.210 C14.678,18.052 14.708,17.880 14.708,17.693 L14.708,5.602 ZM12.669,16.214 L11.854,16.214 C11.735,16.214 11.637,16.176 11.561,16.099 C11.484,16.022 11.446,15.925 11.446,15.806 L11.446,8.459 C11.446,8.340 11.484,8.242 11.561,8.166 C11.637,8.090 11.735,8.051 11.854,8.051 L12.669,8.051 C12.788,8.051 12.886,8.090 12.962,8.166 C13.039,8.242 13.077,8.340 13.077,8.459 L13.077,15.806 C13.077,15.925 13.039,16.022 12.962,16.099 C12.886,16.176 12.788,16.214 12.669,16.214 ZM9.408,16.214 L8.592,16.214 C8.474,16.214 8.376,16.176 8.299,16.099 C8.223,16.022 8.185,15.925 8.185,15.806 L8.185,8.459 C8.185,8.340 8.223,8.242 8.299,8.166 C8.376,8.090 8.474,8.051 8.592,8.051 L9.408,8.051 C9.527,8.051 9.624,8.090 9.701,8.166 C9.777,8.242 9.815,8.340 9.815,8.459 L9.815,15.806 C9.815,15.925 9.777,16.022 9.701,16.099 C9.624,16.176 9.527,16.214 9.408,16.214 ZM6.146,16.214 L5.331,16.214 C5.212,16.214 5.114,16.176 5.038,16.099 C4.961,16.022 4.923,15.925 4.923,15.806 L4.923,8.459 C4.923,8.340 4.961,8.242 5.038,8.166 C5.114,8.090 5.212,8.051 5.331,8.051 L6.146,8.051 C6.265,8.051 6.363,8.090 6.439,8.166 C6.515,8.242 6.554,8.340 6.554,8.459 L6.554,15.806 C6.554,15.925 6.515,16.022 6.439,16.099 C6.363,16.176 6.265,16.214 6.146,16.214 Z"/>
</svg>