<svg 
 xmlns="http://www.w3.org/2000/svg"
 xmlns:xlink="http://www.w3.org/1999/xlink"
 width="44px" height="44px">
<path fill-rule="evenodd"  fill="rgb(0, 123, 194)"
 d="M40.027,20.043 L41.672,23.063 L40.315,24.927 L40.594,32.193 L42.744,32.804 L43.480,35.022 L41.908,37.083 L41.807,37.572 L42.442,40.085 L40.888,41.833 L38.316,41.502 L37.842,41.659 L35.982,43.464 L33.690,42.995 L33.284,42.021 L6.744,43.412 L6.706,43.412 C4.484,43.408 2.626,41.722 2.409,39.512 C2.192,37.302 3.687,35.288 5.867,34.853 L12.455,32.732 C10.662,31.697 9.864,29.532 10.555,27.582 L6.290,29.357 C4.953,29.950 3.407,29.827 2.181,29.029 C0.956,28.232 0.217,26.868 0.220,25.408 L0.220,25.351 L0.224,25.351 L0.224,25.324 C0.227,25.161 0.240,24.997 0.262,24.835 L1.257,12.094 L0.364,9.941 L1.306,8.740 L1.306,7.763 L0.364,6.558 L1.487,3.856 L3.000,3.670 L3.692,2.978 L3.878,1.466 L6.581,0.346 L7.787,1.285 L8.763,1.285 L9.967,0.346 L12.668,1.467 L12.855,2.980 L13.529,3.654 L23.540,4.250 L23.680,3.186 L26.542,2.257 L28.909,4.752 L29.978,4.752 L32.345,2.257 L35.207,3.186 L35.654,6.595 L36.518,7.223 L39.902,6.594 L41.672,9.027 L40.027,12.048 L40.357,13.063 L43.464,14.541 L43.464,17.550 L40.357,19.028 L40.027,20.043 ZM33.895,39.745 L34.727,41.736 L35.525,41.899 L37.075,40.396 L38.173,40.032 L40.316,40.306 L40.857,39.698 L40.329,37.604 L40.563,36.470 L41.874,34.755 L41.617,33.981 L39.538,33.391 L38.674,32.624 L37.841,30.631 L37.043,30.467 L35.492,31.971 L34.393,32.336 L32.250,32.060 L31.709,32.670 L32.237,34.763 L32.005,35.896 L30.694,37.612 L30.952,38.386 L33.030,38.976 L33.895,39.745 ZM6.191,36.262 L5.494,36.486 C4.478,36.956 3.826,37.972 3.823,39.091 C3.823,40.678 5.109,41.967 6.698,41.971 L6.733,41.971 C7.817,41.957 8.802,41.335 9.280,40.362 C9.758,39.389 9.648,38.230 8.995,37.364 C8.343,36.498 7.259,36.072 6.191,36.262 ZM14.635,31.889 C16.227,31.889 17.518,30.599 17.518,29.008 C17.518,27.418 16.227,26.128 14.635,26.128 C13.042,26.128 11.752,27.418 11.752,29.008 C11.752,30.599 13.042,31.889 14.635,31.889 ZM1.661,25.420 C1.577,26.909 2.709,28.188 4.199,28.287 C5.688,28.386 6.979,27.268 7.093,25.782 C7.208,24.295 6.103,22.993 4.616,22.863 C3.129,22.733 1.815,23.824 1.670,25.308 L1.661,25.420 ZM14.529,6.337 L14.052,5.185 L12.878,5.041 L11.489,3.650 L11.345,2.477 L10.192,2.002 L9.264,2.727 L7.293,2.727 L6.361,2.000 L5.208,2.475 L5.064,3.648 L3.671,5.037 L2.497,5.181 L2.021,6.334 L2.747,7.265 L2.747,9.231 L2.019,10.162 L2.495,11.315 L3.668,11.458 L5.059,12.857 L5.204,14.030 L6.357,14.506 L7.289,13.779 L9.256,13.779 L10.188,14.506 L11.341,14.030 L11.486,12.857 L12.878,11.466 L14.052,11.322 L14.529,10.169 L13.801,9.238 L13.801,7.269 L14.529,6.337 ZM15.626,5.224 L16.179,6.561 L15.242,7.763 L15.242,8.745 L16.179,9.947 L15.060,12.647 L13.547,12.833 L12.855,13.525 L12.668,15.037 L9.973,16.152 L8.770,15.216 L7.792,15.216 L6.588,16.152 L3.885,15.034 L3.698,13.522 L3.007,12.830 L2.657,12.787 L1.936,21.975 C3.453,20.818 5.549,20.793 7.092,21.914 C8.636,23.035 9.260,25.034 8.627,26.833 L13.006,25.009 C14.476,24.396 16.165,24.640 17.401,25.643 C18.637,26.648 19.221,28.249 18.920,29.812 C18.619,31.376 17.482,32.647 15.961,33.121 L8.922,35.384 C9.998,36.022 10.743,37.095 10.964,38.326 C11.185,39.556 10.861,40.821 10.075,41.793 L32.691,40.608 L32.691,40.603 L32.317,40.272 L29.823,39.563 L29.084,37.344 L30.657,35.284 L30.758,34.796 L30.124,32.283 L31.677,30.534 L34.250,30.866 L34.723,30.708 L36.588,28.903 L38.880,29.374 L39.064,29.814 L38.892,25.308 L36.522,24.867 L35.657,25.495 L35.210,28.904 L32.348,29.834 L29.981,27.338 L28.913,27.338 L26.545,29.834 L23.683,28.904 L23.236,25.495 L22.371,24.867 L18.989,25.496 L17.218,23.063 L18.862,20.043 L18.532,19.028 L15.426,17.550 L15.426,14.541 L18.533,13.061 L18.862,12.048 L17.218,9.027 L18.989,6.594 L22.371,7.223 L23.236,6.596 L23.356,5.681 L15.626,5.224 ZM42.023,15.451 L39.178,14.097 L38.465,11.904 L39.970,9.137 L39.271,8.176 L36.172,8.752 L34.305,7.397 L33.897,4.275 L32.764,3.907 L30.596,6.193 L28.290,6.193 L26.122,3.907 L24.990,4.275 L24.581,7.396 L22.714,8.753 L19.615,8.178 L18.916,9.139 L20.421,11.904 L19.708,14.098 L16.863,15.452 L16.863,16.640 L19.708,17.994 L20.421,20.188 L18.916,22.953 L19.615,23.914 L22.714,23.338 L24.581,24.694 L24.990,27.815 L26.122,28.182 L28.290,25.897 L30.596,25.897 L32.764,28.182 L33.897,27.815 L34.305,24.693 L36.172,23.338 L39.271,23.914 L39.970,22.952 L38.465,20.186 L39.178,17.993 L42.023,16.639 L42.023,15.451 ZM29.050,23.247 C25.071,23.243 21.846,20.021 21.842,16.045 C21.842,12.068 25.069,8.844 29.050,8.844 C33.030,8.844 36.257,12.068 36.257,16.045 C36.257,20.023 33.030,23.247 29.050,23.247 ZM29.050,10.284 C25.866,10.287 23.287,12.865 23.284,16.045 C23.284,19.227 25.865,21.806 29.050,21.806 C32.234,21.806 34.815,19.227 34.815,16.045 C34.815,12.863 32.234,10.284 29.050,10.284 ZM29.050,20.366 C26.662,20.364 24.727,18.431 24.725,16.045 C24.725,13.659 26.661,11.724 29.050,11.724 C31.438,11.724 33.374,13.659 33.374,16.045 C33.374,18.431 31.438,20.366 29.050,20.366 ZM29.050,13.165 C27.457,13.165 26.167,14.454 26.167,16.045 C26.167,17.636 27.457,18.926 29.050,18.926 C30.642,18.926 31.933,17.636 31.933,16.045 C31.933,14.454 30.642,13.165 29.050,13.165 ZM8.274,11.961 C6.223,11.959 4.562,10.298 4.559,8.249 C4.559,6.200 6.222,4.538 8.274,4.538 C10.326,4.538 11.989,6.200 11.989,8.249 C11.989,10.299 10.326,11.961 8.274,11.961 ZM8.274,5.978 C7.019,5.980 6.002,6.996 6.001,8.249 C6.001,9.504 7.018,10.521 8.274,10.521 C9.529,10.521 10.547,9.504 10.547,8.249 C10.547,6.995 9.529,5.978 8.274,5.978 ZM4.544,23.967 C5.340,23.967 5.986,24.612 5.986,25.408 C5.986,26.203 5.340,26.848 4.544,26.848 C3.748,26.848 3.103,26.203 3.103,25.408 C3.103,24.612 3.748,23.967 4.544,23.967 ZM14.635,27.568 C15.431,27.568 16.076,28.213 16.076,29.008 C16.076,29.804 15.431,30.449 14.635,30.449 C13.838,30.449 13.193,29.804 13.193,29.008 C13.193,28.213 13.838,27.568 14.635,27.568 ZM6.706,40.531 C5.910,40.531 5.265,39.886 5.265,39.091 C5.265,38.295 5.910,37.650 6.706,37.650 C7.502,37.650 8.148,38.295 8.148,39.091 C8.148,39.886 7.502,40.531 6.706,40.531 ZM36.257,32.609 C38.246,32.612 39.858,34.222 39.861,36.210 C39.861,38.199 38.247,39.811 36.257,39.811 C34.266,39.811 32.653,38.199 32.653,36.210 C32.653,34.221 34.266,32.609 36.257,32.609 ZM36.257,38.371 C37.451,38.371 38.419,37.403 38.419,36.210 C38.419,35.017 37.451,34.050 36.257,34.050 C35.063,34.050 34.095,35.017 34.095,36.210 C34.095,37.403 35.063,38.371 36.257,38.371 ZM41.302,4.522 C40.108,4.522 39.140,3.555 39.140,2.362 C39.140,1.169 40.108,0.202 41.302,0.202 C42.496,0.202 43.464,1.169 43.464,2.362 C43.464,3.555 42.496,4.522 41.302,4.522 ZM41.302,1.642 C40.904,1.642 40.581,1.964 40.581,2.362 C40.581,2.760 40.904,3.082 41.302,3.082 C41.700,3.082 42.023,2.760 42.023,2.362 C42.023,1.964 41.700,1.642 41.302,1.642 ZM18.959,3.082 C18.163,3.082 17.518,2.437 17.518,1.642 C17.518,0.846 18.163,0.202 18.959,0.202 C19.755,0.202 20.401,0.846 20.401,1.642 C20.401,2.437 19.755,3.082 18.959,3.082 Z"/>
</svg>