<svg 
 xmlns="http://www.w3.org/2000/svg"
 xmlns:xlink="http://www.w3.org/1999/xlink"
 width="43px" height="43px">
<path fill-rule="evenodd"  fill="rgb(0, 123, 194)"
 d="M32.967,42.634 L32.697,42.750 L32.426,42.634 C30.834,41.951 29.394,41.034 28.127,39.940 L0.413,39.940 L0.413,7.353 L7.685,0.077 L30.636,0.077 L30.636,17.947 L37.505,17.947 L37.505,18.634 C37.505,21.286 39.663,23.445 42.313,23.445 L43.000,23.445 L43.000,27.410 C43.000,34.045 39.062,40.021 32.967,42.634 ZM7.282,2.424 L2.758,6.950 L7.282,6.950 L7.282,2.424 ZM4.535,8.325 L4.535,11.074 L26.515,11.074 L26.515,4.201 L8.656,4.201 L8.656,8.325 L4.535,8.325 ZM29.262,1.452 L8.656,1.452 L8.656,2.827 L27.889,2.827 L27.889,12.449 L3.161,12.449 L3.161,8.325 L1.787,8.325 L1.787,38.566 L26.715,38.566 C23.990,35.575 22.394,31.628 22.394,27.410 L22.394,23.445 L23.080,23.445 C25.731,23.445 27.889,21.286 27.889,18.634 L27.889,17.947 L29.262,17.947 L29.262,1.452 ZM41.626,27.410 L41.626,24.782 C38.765,24.465 36.486,22.185 36.169,19.322 L29.224,19.322 C28.907,22.185 26.628,24.465 23.767,24.782 L23.767,27.410 C23.767,33.396 27.262,38.797 32.697,41.252 C38.132,38.796 41.626,33.396 41.626,27.410 L41.626,27.410 ZM37.505,31.693 C37.505,34.345 35.347,36.504 32.697,36.504 C30.046,36.504 27.889,34.345 27.889,31.693 C27.889,29.041 30.046,26.882 32.697,26.882 C33.318,26.882 33.909,27.004 34.455,27.219 L36.187,23.174 L37.449,23.716 L35.654,27.908 C36.778,28.789 37.505,30.156 37.505,31.693 ZM35.086,29.233 L33.002,34.098 L30.255,32.265 L31.017,31.121 L32.391,32.037 L33.911,28.489 C33.532,28.345 33.125,28.256 32.697,28.256 C30.803,28.256 29.262,29.798 29.262,31.693 C29.262,33.588 30.803,35.129 32.697,35.129 C34.590,35.129 36.131,33.588 36.131,31.693 C36.131,30.728 35.729,29.858 35.086,29.233 ZM3.161,24.820 L21.020,24.820 L21.020,37.191 L3.161,37.191 L3.161,24.820 ZM4.535,35.817 L19.646,35.817 L19.646,26.194 L4.535,26.194 L4.535,35.817 ZM3.161,22.071 L21.020,22.071 L21.020,23.445 L3.161,23.445 L3.161,22.071 ZM3.161,19.322 L21.020,19.322 L21.020,20.696 L3.161,20.696 L3.161,19.322 ZM3.161,16.572 L21.020,16.572 L21.020,17.947 L3.161,17.947 L3.161,16.572 ZM5.908,13.823 L21.020,13.823 L21.020,15.198 L5.908,15.198 L5.908,13.823 ZM3.161,13.823 L4.535,13.823 L4.535,15.198 L3.161,15.198 L3.161,13.823 Z"/>
</svg>