<svg 
 xmlns="http://www.w3.org/2000/svg"
 xmlns:xlink="http://www.w3.org/1999/xlink"
 width="45px" height="42px">
<path fill-rule="evenodd"  fill="rgb(0, 123, 194)"
 d="M43.874,24.528 L32.415,35.974 C31.994,36.397 31.421,36.635 30.824,36.633 L10.823,36.633 L7.523,39.929 L7.523,41.113 C7.523,41.526 7.188,41.860 6.775,41.860 L0.795,41.860 C0.382,41.860 0.047,41.526 0.047,41.113 L0.047,26.180 C0.047,25.767 0.382,25.433 0.795,25.433 L6.775,25.433 C7.188,25.433 7.523,25.767 7.523,26.180 L7.523,27.364 L10.951,23.940 L10.513,23.940 C9.275,23.940 8.271,22.937 8.271,21.700 L8.271,6.766 C8.271,5.529 9.275,4.526 10.513,4.526 L12.756,4.526 L12.756,2.286 C12.756,1.049 13.760,0.046 14.999,0.046 L40.416,0.046 C41.654,0.046 42.658,1.049 42.658,2.286 L42.658,17.219 C42.658,18.457 41.654,19.459 40.416,19.459 L38.173,19.459 L38.173,21.700 C38.173,21.727 38.165,21.752 38.165,21.780 L38.586,21.358 C39.753,20.193 41.645,20.193 42.813,21.358 L43.873,22.409 L43.874,22.409 C44.459,22.995 44.459,23.942 43.874,24.528 ZM6.028,26.926 L1.542,26.926 L1.542,40.367 L6.028,40.367 L6.028,26.926 ZM10.513,6.019 C10.100,6.019 9.766,6.354 9.766,6.766 L9.766,21.700 C9.766,22.112 10.100,22.446 10.513,22.446 L12.444,22.446 L17.827,17.070 C18.702,16.199 20.117,16.199 20.992,17.070 L22.050,18.133 C22.050,18.133 22.051,18.133 22.051,18.134 C22.927,19.009 22.926,20.427 22.050,21.302 L20.904,22.446 L35.930,22.446 C36.343,22.446 36.678,22.112 36.678,21.700 L36.678,6.766 C36.678,6.354 36.343,6.019 35.930,6.019 L10.513,6.019 ZM19.409,23.940 L16.396,26.947 L18.937,28.420 L31.523,28.420 L36.013,23.932 C35.985,23.932 35.959,23.940 35.930,23.940 L19.409,23.940 ZM41.163,2.286 C41.163,1.873 40.828,1.539 40.416,1.539 L14.999,1.539 C14.586,1.539 14.251,1.873 14.251,2.286 L14.251,4.526 L41.163,4.526 L41.163,2.286 ZM38.173,17.966 L40.416,17.966 C40.828,17.966 41.163,17.632 41.163,17.220 L41.163,10.499 L38.173,10.499 L38.173,17.966 ZM38.173,6.766 L38.173,9.006 L41.163,9.006 L41.163,6.019 L38.035,6.019 C38.124,6.258 38.171,6.511 38.173,6.766 ZM41.757,22.414 C41.174,21.831 40.227,21.831 39.643,22.414 L32.363,29.694 C32.223,29.835 32.032,29.913 31.834,29.913 L18.736,29.913 C18.605,29.913 18.475,29.878 18.361,29.812 L14.803,27.751 C14.746,27.719 14.694,27.679 14.648,27.633 C14.357,27.341 14.357,26.868 14.649,26.577 L20.996,20.246 C20.996,20.245 20.996,20.245 20.997,20.244 C21.289,19.952 21.288,19.480 20.996,19.188 L19.935,18.128 C19.643,17.841 19.175,17.841 18.884,18.128 L7.523,29.475 L7.523,37.818 L9.984,35.359 C10.125,35.219 10.315,35.140 10.513,35.140 L30.824,35.140 C31.025,35.140 31.217,35.059 31.357,34.916 L42.818,23.469 L41.757,22.414 ZM30.697,20.546 C29.766,21.089 28.614,21.089 27.682,20.546 C26.256,19.714 25.775,17.885 26.607,16.461 C27.440,15.036 29.271,14.555 30.697,15.387 C31.151,15.122 31.667,14.981 32.192,14.979 C32.726,14.977 33.250,15.118 33.711,15.386 C35.138,16.217 35.619,18.046 34.787,19.471 C33.955,20.896 32.124,21.377 30.697,20.546 ZM30.206,16.863 C29.932,16.615 29.576,16.478 29.206,16.477 C28.380,16.474 27.709,17.141 27.707,17.966 C27.707,18.791 28.376,19.459 29.202,19.459 C29.569,19.460 29.924,19.324 30.196,19.077 C30.238,19.040 30.278,19.000 30.316,18.959 C30.865,18.350 30.816,17.412 30.206,16.863 ZM32.192,16.473 C32.067,16.472 31.942,16.488 31.820,16.520 C31.849,16.571 31.869,16.624 31.895,16.676 C31.912,16.710 31.930,16.747 31.946,16.784 C32.016,16.948 32.072,17.118 32.112,17.292 C32.120,17.327 32.125,17.361 32.132,17.396 C32.170,17.584 32.191,17.775 32.192,17.966 C32.189,18.158 32.167,18.350 32.126,18.537 C32.120,18.571 32.115,18.605 32.107,18.639 C32.067,18.815 32.010,18.988 31.938,19.154 C31.924,19.186 31.908,19.217 31.893,19.248 C31.870,19.303 31.848,19.360 31.818,19.413 C31.941,19.444 32.066,19.460 32.192,19.459 C33.018,19.459 33.687,18.791 33.687,17.966 C33.687,17.141 33.018,16.473 32.192,16.473 ZM23.222,10.499 L34.435,10.499 L34.435,11.993 L23.222,11.993 L23.222,10.499 ZM23.222,7.513 L34.435,7.513 L34.435,9.006 L23.222,9.006 L23.222,7.513 ZM19.484,13.486 L12.008,13.486 C11.595,13.486 11.261,13.152 11.261,12.739 L11.261,8.259 C11.261,7.847 11.595,7.513 12.008,7.513 L19.484,7.513 C19.897,7.513 20.231,7.847 20.231,8.259 L20.231,12.739 C20.231,13.151 19.897,13.486 19.484,13.486 ZM13.503,10.499 L13.503,9.006 L12.756,9.006 L12.756,11.993 L15.746,11.993 L15.746,11.246 L14.251,11.246 C13.838,11.246 13.503,10.912 13.503,10.499 ZM18.736,9.006 L14.999,9.006 L14.999,9.753 L18.736,9.753 L18.736,9.006 ZM18.736,11.246 L17.241,11.246 L17.241,11.993 L18.736,11.993 L18.736,11.246 Z"/>
</svg>