<svg 
 xmlns="http://www.w3.org/2000/svg"
 xmlns:xlink="http://www.w3.org/1999/xlink"
 width="44px" height="43px">
<path fill-rule="evenodd"  fill="rgb(0, 123, 194)"
 d="M43.257,31.056 C43.322,31.232 43.322,31.415 43.257,31.574 L43.257,36.029 C43.322,36.205 43.322,36.388 43.257,36.548 L43.257,40.498 C43.257,41.706 42.333,42.630 41.124,42.630 L35.437,42.630 C34.228,42.630 33.304,41.706 33.304,40.498 L33.304,36.775 L25.311,34.216 C24.427,35.030 23.242,35.525 21.929,35.525 C20.544,35.525 19.301,34.975 18.404,34.080 L10.554,36.747 L10.554,40.498 C10.554,41.706 9.630,42.630 8.422,42.630 L2.734,42.630 C1.525,42.630 0.601,41.706 0.601,40.498 L0.601,36.477 C0.537,36.317 0.537,36.134 0.601,35.958 L0.601,31.503 C0.537,31.343 0.537,31.161 0.601,30.985 L0.601,26.530 C0.530,26.352 0.538,26.145 0.626,25.952 C0.780,24.913 1.641,24.157 2.734,24.157 L3.150,24.157 L6.811,20.056 C5.554,18.711 5.170,16.786 5.791,15.062 L6.431,13.286 C6.858,12.149 7.924,11.439 9.133,11.439 L13.625,11.439 L15.104,7.531 C15.460,6.394 16.526,5.684 17.735,5.684 L19.243,5.684 L15.430,3.360 C15.219,3.887 14.692,4.263 14.038,4.263 L10.554,4.263 C9.772,4.263 9.133,3.624 9.133,2.771 L9.133,1.492 C9.133,0.639 9.772,0.000 10.626,0.000 L14.109,0.000 C14.891,0.000 15.531,0.639 15.531,1.492 L15.531,1.709 L21.894,5.588 L28.328,1.665 L28.328,1.492 C28.328,0.640 28.967,0.000 29.821,0.000 L33.304,0.000 C34.086,0.000 34.726,0.640 34.726,1.492 L34.726,2.842 C34.726,3.624 34.086,4.263 33.233,4.263 L29.750,4.263 C29.160,4.263 28.651,3.899 28.437,3.355 L24.616,5.684 L26.124,5.684 C27.332,5.684 28.399,6.394 28.754,7.531 L30.234,11.439 L34.513,11.439 C35.721,11.439 36.788,12.221 37.214,13.286 L37.854,15.063 C38.434,16.673 38.138,18.458 37.071,19.783 L40.935,24.157 L41.124,24.157 C42.252,24.157 43.132,24.961 43.245,26.051 C43.321,26.236 43.325,26.432 43.257,26.601 L43.257,31.056 ZM14.109,1.492 L10.626,1.421 L10.554,2.771 L14.038,2.842 C14.109,2.842 14.109,2.842 14.109,2.771 L14.109,1.492 ZM29.821,2.842 L33.304,2.842 L33.304,1.492 L29.821,1.421 L29.750,2.771 L29.821,2.842 ZM33.304,30.985 L33.304,26.530 C33.232,26.352 33.241,26.145 33.329,25.952 C33.453,25.114 34.038,24.460 34.833,24.239 L33.842,23.107 L29.465,27.567 C28.896,28.136 28.186,28.420 27.403,28.420 L26.435,28.420 C26.706,28.999 26.870,29.640 26.900,30.320 L33.304,32.486 L33.304,31.503 C33.240,31.343 33.240,31.161 33.304,30.985 ZM33.304,35.240 L33.304,33.890 L26.776,31.692 C26.671,32.147 26.505,32.577 26.287,32.973 L33.304,35.240 ZM21.929,34.104 C23.105,34.104 24.133,33.558 24.776,32.701 C24.790,32.682 24.803,32.663 24.817,32.645 C24.831,32.625 24.846,32.604 24.860,32.584 C24.883,32.549 24.906,32.514 24.929,32.479 C24.931,32.476 24.933,32.472 24.935,32.469 C25.253,31.961 25.413,31.402 25.413,30.764 L25.461,30.142 C25.389,29.497 25.152,28.908 24.790,28.420 L24.773,28.420 L24.560,28.207 C23.849,27.425 22.924,26.999 21.929,26.999 C20.934,26.999 19.939,27.425 19.299,28.207 L19.085,28.420 L19.069,28.420 C18.631,29.010 18.375,29.746 18.375,30.551 C18.375,32.541 19.939,34.104 21.929,34.104 ZM10.554,35.311 L17.521,32.967 C17.308,32.541 17.166,32.114 17.024,31.617 L10.554,33.962 L10.554,35.311 ZM10.542,26.051 C10.619,26.236 10.623,26.432 10.554,26.601 L10.554,31.056 C10.619,31.232 10.619,31.415 10.554,31.574 L10.554,32.453 L16.971,30.135 C17.020,29.524 17.177,28.946 17.424,28.420 L16.455,28.420 C15.673,28.420 14.962,28.136 14.393,27.567 L10.093,23.311 L9.210,24.299 C9.940,24.576 10.458,25.233 10.542,26.051 ZM2.023,40.498 C2.023,40.924 2.308,41.209 2.734,41.209 L8.422,41.209 C8.848,41.209 9.133,40.924 9.133,40.498 L9.133,37.632 L6.004,39.716 C5.891,39.716 5.777,39.761 5.664,39.780 C5.659,39.780 5.655,39.781 5.650,39.782 C5.626,39.785 5.602,39.788 5.578,39.788 C5.556,39.788 5.534,39.785 5.513,39.782 C5.500,39.781 5.488,39.779 5.476,39.776 C5.472,39.775 5.467,39.774 5.463,39.773 C5.417,39.763 5.371,39.748 5.327,39.728 C5.268,39.704 5.210,39.675 5.151,39.645 L2.023,37.561 L2.023,40.498 ZM2.023,35.833 L5.631,38.236 L9.133,35.904 L9.133,32.967 L9.133,32.659 L6.004,34.743 C5.891,34.743 5.777,34.788 5.664,34.806 C5.659,34.807 5.655,34.808 5.650,34.808 C5.626,34.812 5.602,34.814 5.578,34.814 C5.556,34.814 5.534,34.812 5.513,34.809 C5.500,34.807 5.488,34.805 5.476,34.803 C5.472,34.802 5.467,34.801 5.463,34.800 C5.417,34.790 5.371,34.774 5.327,34.755 C5.268,34.730 5.210,34.701 5.151,34.672 L2.023,32.588 L2.023,35.833 ZM2.023,30.859 L5.631,33.263 L9.133,30.930 L9.133,27.686 L6.004,29.769 C5.891,29.769 5.777,29.814 5.664,29.833 C5.659,29.834 5.655,29.834 5.650,29.835 C5.626,29.838 5.602,29.841 5.578,29.841 C5.556,29.841 5.534,29.838 5.513,29.835 C5.500,29.834 5.488,29.832 5.476,29.829 C5.472,29.828 5.467,29.827 5.463,29.826 C5.417,29.816 5.371,29.801 5.327,29.781 C5.268,29.757 5.210,29.728 5.151,29.699 L2.023,27.614 L2.023,30.859 ZM2.734,25.578 C2.440,25.578 2.213,25.713 2.101,25.938 L5.631,28.289 L9.079,25.992 C8.978,25.736 8.739,25.578 8.422,25.578 L8.066,25.578 L2.734,25.578 ZM5.009,24.157 L7.355,24.157 L9.037,22.265 L7.823,21.063 L5.009,24.157 ZM27.403,8.029 C27.190,7.460 26.693,7.105 26.053,7.105 L22.285,7.105 C22.244,7.105 22.179,7.128 22.105,7.148 C22.064,7.161 22.023,7.169 21.983,7.173 C21.983,7.173 21.982,7.173 21.982,7.173 C21.964,7.175 21.946,7.176 21.929,7.176 C21.787,7.176 21.645,7.176 21.574,7.105 L17.735,7.105 C17.166,7.105 16.597,7.460 16.384,8.029 L15.104,11.368 L28.683,11.368 L27.403,8.029 ZM36.717,15.489 L36.077,13.712 C35.863,13.144 35.295,12.789 34.726,12.789 L30.745,12.789 L13.114,12.789 L9.204,12.789 C8.564,12.789 8.066,13.144 7.853,13.712 L7.213,15.489 C6.715,16.768 7.071,18.189 7.995,19.112 L15.460,26.573 C15.744,26.857 16.100,26.999 16.526,26.999 L18.429,26.999 C19.325,26.118 20.557,25.578 21.929,25.578 C21.941,25.578 21.952,25.579 21.964,25.579 C21.976,25.579 21.988,25.578 22.000,25.578 C22.462,25.578 22.935,25.651 23.394,25.793 C24.173,26.028 24.867,26.446 25.429,26.999 L27.403,26.999 C27.830,26.999 28.185,26.857 28.470,26.573 L35.934,19.112 C36.859,18.189 37.214,16.768 36.717,15.489 ZM36.219,21.031 L35.010,22.238 L36.645,24.157 L38.992,24.157 L36.219,21.031 ZM41.124,25.578 L36.006,25.578 L35.437,25.578 C35.142,25.578 34.916,25.713 34.804,25.938 L38.334,28.289 L41.782,25.992 C41.681,25.736 41.442,25.578 41.124,25.578 ZM41.835,27.686 L38.707,29.769 C38.594,29.769 38.480,29.814 38.366,29.833 C38.362,29.834 38.357,29.834 38.353,29.835 C38.329,29.838 38.305,29.841 38.281,29.841 C38.259,29.841 38.237,29.838 38.215,29.835 C38.203,29.834 38.191,29.832 38.179,29.829 C38.174,29.828 38.170,29.827 38.165,29.826 C38.119,29.816 38.074,29.801 38.030,29.781 C37.971,29.757 37.913,29.728 37.854,29.699 L34.726,27.614 L34.726,30.859 L38.334,33.263 L41.835,30.930 L41.835,27.686 ZM41.835,32.659 L38.707,34.743 C38.594,34.743 38.480,34.788 38.366,34.806 C38.362,34.807 38.357,34.808 38.353,34.808 C38.329,34.812 38.305,34.814 38.281,34.814 C38.259,34.814 38.237,34.812 38.215,34.809 C38.203,34.807 38.191,34.805 38.179,34.803 C38.174,34.802 38.170,34.801 38.165,34.800 C38.119,34.790 38.074,34.774 38.030,34.755 C37.971,34.730 37.913,34.701 37.854,34.672 L34.726,32.588 L34.726,32.967 L34.726,35.833 L38.334,38.236 L41.835,35.903 L41.835,32.659 ZM41.835,37.632 L38.707,39.716 C38.594,39.716 38.480,39.761 38.366,39.780 C38.362,39.780 38.357,39.781 38.353,39.782 C38.329,39.785 38.305,39.788 38.281,39.788 C38.259,39.788 38.237,39.785 38.215,39.782 C38.203,39.781 38.191,39.779 38.179,39.776 C38.175,39.775 38.170,39.774 38.166,39.773 C38.120,39.763 38.074,39.748 38.030,39.728 C37.971,39.704 37.913,39.675 37.854,39.645 L34.726,37.561 L34.726,40.498 C34.726,40.924 35.010,41.209 35.437,41.209 L41.124,41.209 C41.551,41.209 41.835,40.924 41.835,40.498 L41.835,37.632 ZM29.323,21.315 L25.839,21.315 C24.844,21.315 23.991,20.533 23.991,19.467 L23.991,17.407 C23.991,16.412 24.773,15.560 25.839,15.560 L29.323,15.560 C30.318,15.560 31.171,16.341 31.171,17.407 L31.171,19.467 C31.171,20.533 30.389,21.315 29.323,21.315 ZM29.821,17.478 C29.821,17.265 29.607,17.052 29.394,17.052 L25.910,17.052 C25.697,17.052 25.484,17.265 25.484,17.478 L25.484,19.539 C25.484,19.752 25.697,19.965 25.910,19.965 L29.394,19.965 C29.607,19.965 29.821,19.752 29.821,19.539 L29.821,17.478 ZM17.948,21.315 L14.465,21.315 C13.469,21.315 12.616,20.533 12.616,19.467 L12.616,17.407 C12.616,16.412 13.398,15.560 14.465,15.560 L17.948,15.560 C18.943,15.560 19.796,16.341 19.796,17.407 L19.796,19.467 C19.796,20.533 19.014,21.315 17.948,21.315 ZM18.446,17.478 C18.446,17.265 18.232,17.052 18.019,17.052 L14.536,17.052 C14.322,17.052 14.109,17.265 14.109,17.478 L14.109,19.539 C14.109,19.752 14.322,19.965 14.536,19.965 L18.019,19.965 C18.232,19.965 18.446,19.752 18.446,19.539 L18.446,17.478 Z"/>
</svg>