<svg 
 xmlns="http://www.w3.org/2000/svg"
 xmlns:xlink="http://www.w3.org/1999/xlink"
 width="24px" height="17px">
<path fill-rule="evenodd"  fill="rgb(0, 142, 212)"
 d="M22.696,12.904 L21.917,12.904 C21.486,12.904 21.137,12.555 21.137,12.124 L21.137,10.174 L20.357,10.174 L20.357,12.124 C20.357,12.770 19.833,13.294 19.187,13.294 L18.407,13.294 C18.239,13.295 18.075,13.349 17.940,13.450 L13.885,16.492 C13.614,16.694 13.287,16.803 12.949,16.805 L4.761,16.805 C4.115,16.805 3.592,16.281 3.592,15.634 L3.592,13.294 L2.422,13.294 L2.422,15.244 C2.422,15.675 2.073,16.024 1.642,16.024 L0.862,16.024 C0.432,16.024 0.082,15.675 0.082,15.244 L0.082,9.004 C0.082,8.573 0.432,8.224 0.862,8.224 L1.642,8.224 C2.073,8.224 2.422,8.573 2.422,9.004 L2.422,10.954 L3.592,10.954 L3.592,8.224 C3.592,7.577 4.115,7.054 4.761,7.054 L5.966,7.054 C6.123,7.052 6.276,7.006 6.407,6.920 L9.317,4.974 C9.575,4.806 9.876,4.715 10.185,4.713 L10.609,4.713 L10.609,3.933 L8.660,3.933 C8.230,3.933 7.880,3.584 7.880,3.153 L7.880,2.763 C7.882,1.687 8.754,0.814 9.830,0.813 L13.729,0.813 C14.805,0.814 15.677,1.687 15.678,2.763 L15.678,3.153 C15.678,3.584 15.329,3.933 14.898,3.933 L12.949,3.933 L12.949,4.713 L19.187,4.713 C19.833,4.713 20.357,5.237 20.357,5.883 L20.357,7.834 L21.137,7.834 L21.137,5.883 C21.137,5.453 21.486,5.103 21.917,5.103 L22.696,5.103 C23.127,5.103 23.476,5.453 23.476,5.883 L23.476,12.124 C23.476,12.555 23.127,12.904 22.696,12.904 ZM1.642,9.004 L0.862,9.004 L0.862,15.244 L1.642,15.244 L1.642,9.004 ZM3.592,11.734 L2.422,11.734 L2.422,12.514 L3.592,12.514 L3.592,11.734 ZM14.898,3.153 L14.898,2.763 C14.898,2.117 14.375,1.593 13.729,1.593 L9.830,1.593 C9.184,1.593 8.660,2.117 8.660,2.763 L8.660,3.153 L14.898,3.153 ZM11.389,3.933 L11.389,4.713 L12.169,4.713 L12.169,3.933 L11.389,3.933 ZM19.577,5.883 C19.577,5.668 19.403,5.493 19.187,5.493 L10.185,5.493 C10.028,5.495 9.875,5.541 9.744,5.627 L6.834,7.573 C6.576,7.741 6.275,7.832 5.966,7.834 L4.761,7.834 C4.546,7.834 4.371,8.008 4.371,8.224 L4.371,15.634 C4.371,15.850 4.546,16.024 4.761,16.024 L12.949,16.024 C13.118,16.024 13.282,15.969 13.417,15.868 L17.472,12.826 C17.742,12.624 18.070,12.515 18.407,12.514 L19.187,12.514 C19.403,12.514 19.577,12.339 19.577,12.124 L19.577,5.883 ZM21.137,8.614 L20.357,8.614 L20.357,9.394 L21.137,9.394 L21.137,8.614 ZM22.696,5.883 L21.917,5.883 L21.917,12.124 L22.696,12.124 L22.696,5.883 ZM10.961,15.104 C10.841,15.248 10.635,15.286 10.472,15.195 C10.308,15.103 10.233,14.909 10.292,14.731 L11.290,11.734 L10.016,11.734 C9.770,11.734 9.537,11.618 9.391,11.420 C9.243,11.222 9.198,10.966 9.269,10.730 L10.205,7.610 C10.305,7.281 10.608,7.055 10.952,7.054 L12.477,7.054 C12.723,7.053 12.955,7.170 13.102,7.368 C13.250,7.566 13.295,7.821 13.224,8.058 L12.706,9.784 L13.729,9.784 C14.031,9.784 14.306,9.959 14.434,10.233 C14.563,10.507 14.521,10.831 14.327,11.064 L10.961,15.104 ZM12.706,10.564 C12.460,10.564 12.228,10.447 12.081,10.249 C11.934,10.052 11.889,9.796 11.959,9.560 L12.477,7.834 L10.952,7.834 L10.016,10.954 L11.831,10.954 C11.956,10.954 12.074,11.014 12.147,11.116 C12.221,11.217 12.241,11.348 12.201,11.467 L11.685,13.017 L13.729,10.564 L12.706,10.564 ZM5.541,14.464 C5.326,14.464 5.151,14.290 5.151,14.074 L5.151,10.564 C5.151,10.348 5.326,10.174 5.541,10.174 C5.756,10.174 5.931,10.348 5.931,10.564 L5.931,14.074 C5.931,14.290 5.756,14.464 5.541,14.464 ZM5.390,9.368 C5.244,9.307 5.149,9.162 5.151,9.004 C5.150,8.953 5.160,8.902 5.182,8.855 C5.202,8.808 5.230,8.765 5.264,8.727 C5.421,8.583 5.661,8.583 5.818,8.727 C5.852,8.765 5.880,8.808 5.900,8.855 C5.962,9.002 5.929,9.171 5.818,9.283 C5.705,9.396 5.537,9.429 5.390,9.368 Z"/>
</svg>