<svg 
 xmlns="http://www.w3.org/2000/svg"
 xmlns:xlink="http://www.w3.org/1999/xlink"
 width="20px" height="20px">
<path fill-rule="evenodd"  fill="#008ed4"
 d="M19.690,18.217 L14.761,13.266 C16.029,11.811 16.723,9.981 16.723,8.075 C16.723,3.623 12.972,0.000 8.362,0.000 C3.751,0.000 0.000,3.623 0.000,8.075 C0.000,12.527 3.751,16.150 8.362,16.150 C10.092,16.150 11.742,15.646 13.152,14.689 L18.118,19.677 C18.326,19.885 18.605,20.000 18.904,20.000 C19.187,20.000 19.456,19.895 19.660,19.706 C20.093,19.303 20.107,18.635 19.690,18.217 ZM8.362,2.107 C11.769,2.107 14.542,4.784 14.542,8.075 C14.542,11.366 11.769,14.043 8.362,14.043 C4.954,14.043 2.182,11.366 2.182,8.075 C2.182,4.784 4.954,2.107 8.362,2.107 Z"/>
</svg>