<svg
 xmlns="http://www.w3.org/2000/svg"
 xmlns:xlink="http://www.w3.org/1999/xlink"
 width="24px" height="23px">
<path fill-rule="evenodd"  fill="rgb(0, 142, 212)"
 d="M23.088,13.394 L20.672,13.881 C20.494,14.486 20.252,15.070 19.949,15.622 L21.314,17.677 C21.424,17.843 21.402,18.063 21.262,18.203 L18.992,20.473 C18.851,20.613 18.631,20.635 18.466,20.526 L16.411,19.160 C15.858,19.463 15.274,19.705 14.670,19.884 L14.182,22.299 C14.143,22.494 13.971,22.633 13.772,22.633 L10.562,22.633 C10.363,22.633 10.191,22.494 10.151,22.299 L9.664,19.882 C9.059,19.704 8.476,19.462 7.923,19.159 L5.868,20.525 C5.702,20.634 5.482,20.612 5.342,20.472 L3.072,18.202 C2.932,18.062 2.910,17.842 3.019,17.676 L4.385,15.621 C4.082,15.068 3.840,14.484 3.662,13.880 L1.248,13.393 C1.053,13.353 0.913,13.182 0.913,12.982 L0.913,9.772 C0.913,9.573 1.053,9.401 1.248,9.362 L3.663,8.874 C3.841,8.270 4.083,7.686 4.386,7.133 L3.021,5.078 C2.911,4.913 2.933,4.693 3.073,4.552 L5.343,2.282 C5.484,2.142 5.703,2.120 5.869,2.230 L7.924,3.595 C8.477,3.292 9.061,3.050 9.665,2.872 L10.153,0.458 C10.192,0.263 10.364,0.123 10.563,0.123 L13.773,0.123 C13.972,0.123 14.144,0.263 14.183,0.458 L14.671,2.873 C15.275,3.051 15.859,3.294 16.412,3.596 L18.467,2.231 C18.633,2.121 18.852,2.143 18.993,2.284 L21.263,4.553 C21.403,4.694 21.425,4.914 21.315,5.079 L19.950,7.134 C20.253,7.687 20.495,8.271 20.673,8.876 L23.089,9.363 C23.284,9.403 23.423,9.574 23.423,9.773 L23.423,12.984 C23.423,13.183 23.283,13.354 23.088,13.394 ZM20.258,9.645 C20.101,9.614 19.976,9.495 19.936,9.341 C19.750,8.635 19.469,7.958 19.099,7.328 C19.018,7.190 19.023,7.018 19.112,6.886 L20.429,4.901 L18.644,3.116 L16.660,4.433 C16.527,4.522 16.355,4.527 16.217,4.446 C15.587,4.077 14.910,3.796 14.204,3.610 C14.050,3.570 13.932,3.445 13.900,3.289 L13.430,0.956 L10.905,0.956 L10.435,3.289 C10.403,3.445 10.285,3.570 10.130,3.610 C9.424,3.796 8.747,4.077 8.118,4.446 C7.980,4.527 7.808,4.522 7.675,4.433 L5.690,3.116 L3.905,4.901 L5.223,6.886 C5.312,7.018 5.317,7.190 5.236,7.328 C4.867,7.958 4.585,8.635 4.400,9.341 C4.360,9.495 4.235,9.614 4.078,9.645 L1.746,10.115 L1.746,12.639 L4.078,13.109 C4.235,13.141 4.360,13.259 4.400,13.414 C4.585,14.119 4.867,14.797 5.236,15.426 C5.317,15.564 5.312,15.736 5.223,15.869 L3.905,17.853 L5.690,19.638 L7.675,18.321 C7.808,18.232 7.980,18.227 8.118,18.308 C8.747,18.678 9.424,18.959 10.130,19.145 C10.285,19.185 10.403,19.310 10.435,19.467 L10.905,21.799 L13.427,21.799 L13.897,19.467 C13.929,19.310 14.047,19.185 14.202,19.145 C14.907,18.959 15.584,18.678 16.214,18.308 C16.352,18.227 16.524,18.232 16.657,18.321 L18.642,19.638 L20.427,17.853 L19.109,15.869 C19.020,15.736 19.015,15.564 19.096,15.426 C19.466,14.797 19.747,14.119 19.933,13.414 C19.973,13.259 20.098,13.141 20.255,13.109 L22.587,12.639 L22.590,10.115 L20.258,9.645 ZM12.167,17.146 C8.982,17.146 6.399,14.564 6.399,11.378 C6.399,8.192 8.982,5.609 12.167,5.609 C15.352,5.613 17.932,8.193 17.936,11.378 C17.936,14.564 15.353,17.146 12.167,17.146 ZM12.167,6.446 C9.444,6.446 7.236,8.654 7.236,11.378 C7.236,14.101 9.444,16.309 12.167,16.309 C14.890,16.306 17.096,14.100 17.099,11.378 C17.099,8.654 14.891,6.446 12.167,6.446 ZM12.167,15.391 C9.951,15.391 8.154,13.594 8.154,11.378 C8.154,9.161 9.951,7.364 12.167,7.364 C14.383,7.366 16.179,9.162 16.181,11.378 C16.181,13.594 14.384,15.391 12.167,15.391 ZM12.167,8.201 C10.413,8.201 8.991,9.623 8.991,11.378 C8.991,13.132 10.413,14.554 12.167,14.554 C13.921,14.552 15.342,13.132 15.344,11.378 C15.344,9.623 13.922,8.201 12.167,8.201 Z"/>
</svg>