<svg
 xmlns="http://www.w3.org/2000/svg"
 xmlns:xlink="http://www.w3.org/1999/xlink"
 width="35px" height="22px">
<path fill-rule="evenodd"  fill="rgb(0, 142, 212)"
 d="M29.043,11.531 C30.357,11.530 31.617,12.032 32.547,12.927 C34.485,14.792 34.489,17.818 32.556,19.688 C30.622,21.557 27.484,21.561 25.546,19.696 C23.608,17.832 23.604,14.805 25.537,12.935 L24.617,11.826 C23.234,12.934 22.434,14.578 22.434,16.312 L22.434,17.374 C22.434,17.667 22.187,17.905 21.883,17.905 L10.587,17.905 C10.263,18.793 9.674,19.568 8.895,20.134 C6.712,21.718 3.611,21.295 1.969,19.190 C0.326,17.085 0.764,14.094 2.946,12.510 C5.129,10.926 8.230,11.348 9.873,13.453 L12.520,12.724 L12.520,10.469 L6.462,10.469 C6.158,10.469 5.911,10.231 5.911,9.938 L5.911,8.344 L2.607,8.344 C2.345,8.344 2.119,8.166 2.067,7.919 L1.516,5.263 C1.509,5.228 1.505,5.193 1.505,5.157 C1.505,4.864 1.752,4.626 2.056,4.626 L7.564,4.626 C7.789,4.626 7.992,4.758 8.075,4.960 L9.038,7.282 L16.035,7.282 L17.532,4.389 C17.626,4.208 17.818,4.094 18.028,4.095 L23.873,4.095 L23.013,1.607 C22.994,1.553 22.985,1.496 22.985,1.439 C22.985,1.146 23.231,0.908 23.536,0.908 L25.739,0.908 C29.532,0.908 31.797,2.893 31.797,6.219 L31.797,9.938 C31.797,10.231 31.550,10.469 31.246,10.469 L28.492,10.469 C27.453,10.469 26.431,10.728 25.526,11.222 L26.399,12.275 C27.189,11.789 28.107,11.531 29.043,11.531 ZM7.189,5.688 L2.728,5.688 L3.058,7.282 L7.850,7.282 L7.189,5.688 ZM12.520,8.344 L7.013,8.344 L7.013,9.406 L12.520,9.406 L12.520,8.344 ZM19.129,16.843 L21.333,16.843 L21.333,15.249 C21.333,14.369 20.593,13.656 19.680,13.656 L19.129,13.656 L19.129,16.843 ZM13.622,16.843 L18.028,16.843 L18.028,13.656 L13.622,13.656 L13.622,16.843 ZM5.898,12.594 C3.769,12.597 2.046,14.265 2.049,16.318 C2.053,18.371 3.782,20.033 5.911,20.030 C7.399,20.028 8.753,19.201 9.390,17.905 L8.110,17.905 C7.231,19.037 5.586,19.304 4.371,18.512 C3.114,17.692 2.785,16.044 3.635,14.832 C4.485,13.620 6.193,13.302 7.450,14.122 L8.720,13.771 C7.990,13.018 6.968,12.592 5.898,12.594 ZM4.833,15.114 C4.765,15.171 4.701,15.232 4.643,15.299 C4.063,15.963 4.150,16.955 4.839,17.514 C4.823,17.469 4.813,17.422 4.810,17.374 L4.810,15.249 C4.811,15.203 4.819,15.158 4.833,15.114 ZM12.520,13.829 L5.911,15.650 L5.911,16.843 L12.520,16.843 L12.520,13.829 ZM24.086,5.157 L18.368,5.157 L16.869,8.050 C16.775,8.230 16.584,8.345 16.376,8.344 L13.622,8.344 L13.622,10.469 L20.475,10.469 C21.325,9.121 22.586,8.061 24.086,7.435 L24.086,5.157 ZM30.696,6.219 C30.696,5.863 30.660,5.507 30.590,5.157 L29.594,5.157 L29.594,7.282 L30.696,7.282 L30.696,6.219 ZM28.492,9.406 L30.696,9.406 L30.696,8.344 L29.043,8.344 C28.739,8.344 28.492,8.106 28.492,7.813 L28.492,4.626 C28.492,4.332 28.739,4.095 29.043,4.095 L30.228,4.095 C29.293,2.297 27.152,1.970 25.739,1.970 L24.299,1.970 L25.160,4.458 C25.174,4.513 25.183,4.570 25.188,4.626 L25.188,7.813 C25.188,8.057 25.016,8.269 24.771,8.328 C24.753,8.333 22.756,8.860 21.254,11.274 C21.154,11.433 20.975,11.531 20.782,11.531 L13.622,11.531 L13.622,12.594 L19.680,12.594 C20.549,12.596 21.364,12.995 21.880,13.668 C22.990,11.091 25.598,9.410 28.492,9.406 ZM25.189,16.322 C25.192,18.372 26.917,20.032 29.043,20.030 C29.733,20.031 30.411,19.853 31.005,19.516 C32.840,18.474 33.452,16.195 32.371,14.425 C31.291,12.655 28.928,12.066 27.093,13.107 L27.796,13.957 C28.180,13.762 28.608,13.659 29.043,13.656 C30.564,13.656 31.797,14.845 31.797,16.312 C31.797,17.778 30.564,18.967 29.043,18.967 C27.522,18.967 26.289,17.778 26.289,16.312 C26.293,15.693 26.522,15.095 26.937,14.624 L26.234,13.774 C25.562,14.464 25.188,15.375 25.189,16.322 ZM28.613,16.644 L27.643,15.475 C27.476,15.733 27.388,16.032 27.391,16.337 C27.398,17.224 28.150,17.938 29.070,17.930 C29.989,17.923 30.729,17.198 30.722,16.311 C30.714,15.424 29.963,14.711 29.043,14.718 C28.860,14.720 28.678,14.751 28.505,14.811 L29.473,15.980 L28.613,16.644 ZM21.333,6.219 L22.434,6.219 L22.434,7.282 L21.333,7.282 L21.333,6.219 ZM19.129,6.219 L20.231,6.219 L20.231,7.282 L19.129,7.282 L19.129,6.219 ZM12.520,21.092 L10.868,21.092 L10.868,20.030 L12.520,20.030 L12.520,21.092 ZM20.231,21.092 L19.129,21.092 L19.129,20.030 L20.231,20.030 L20.231,21.092 ZM23.536,21.092 L21.333,21.092 L21.333,20.030 L23.536,20.030 L23.536,21.092 Z"/>
</svg>