<svg
 xmlns="http://www.w3.org/2000/svg"
 xmlns:xlink="http://www.w3.org/1999/xlink"
 width="26px" height="26px">
<path fill-rule="evenodd"  fill="rgb(0, 142, 212)"
 d="M21.980,21.980 C19.572,24.388 16.383,25.715 13.000,25.715 C9.617,25.715 6.428,24.388 4.020,21.980 C1.612,19.572 0.285,16.383 0.285,13.000 C0.285,9.617 1.612,6.428 4.020,4.020 C6.428,1.612 9.617,0.285 13.000,0.285 C16.383,0.285 19.572,1.612 21.980,4.020 C24.389,6.428 25.715,9.617 25.715,13.000 C25.715,16.383 24.389,19.572 21.980,21.980 ZM13.000,1.492 C6.654,1.492 1.492,6.654 1.492,13.000 C1.492,19.346 6.654,24.509 13.000,24.509 C19.346,24.509 24.509,19.346 24.509,13.000 C24.509,6.654 19.346,1.492 13.000,1.492 ZM13.000,22.649 C7.680,22.649 3.351,18.321 3.351,13.000 C3.351,7.680 7.680,3.351 13.000,3.351 C18.320,3.351 22.649,7.680 22.649,13.000 C22.649,18.321 18.320,22.649 13.000,22.649 ZM13.000,4.557 C8.345,4.557 4.557,8.345 4.557,13.000 C4.557,17.655 8.345,21.443 13.000,21.443 C17.655,21.443 21.443,17.655 21.443,13.000 C21.443,8.345 17.655,4.557 13.000,4.557 ZM13.730,12.448 C14.394,12.554 15.004,12.805 15.494,13.172 C16.209,13.708 16.618,14.467 16.618,15.254 C16.618,16.041 16.209,16.800 15.494,17.335 C15.004,17.703 14.394,17.954 13.730,18.060 L13.603,18.080 L13.603,19.031 C13.603,19.363 13.332,19.634 13.000,19.634 C12.667,19.634 12.397,19.363 12.397,19.031 L12.397,18.080 L12.270,18.060 C11.606,17.954 10.996,17.703 10.506,17.335 C9.792,16.800 9.382,16.041 9.382,15.254 C9.382,14.921 9.652,14.651 9.985,14.651 C10.317,14.651 10.588,14.921 10.588,15.254 C10.588,15.952 11.240,16.581 12.210,16.818 L12.397,16.864 L12.397,13.557 L12.270,13.537 C11.606,13.431 10.996,13.180 10.506,12.813 C9.792,12.277 9.382,11.518 9.382,10.731 C9.382,9.944 9.792,9.185 10.506,8.649 C10.996,8.282 11.606,8.031 12.270,7.925 L12.397,7.904 L12.397,6.962 C12.397,6.629 12.667,6.359 13.000,6.359 C13.332,6.359 13.603,6.629 13.603,6.962 L13.603,7.904 L13.730,7.925 C14.394,8.031 15.004,8.282 15.494,8.649 C16.209,9.185 16.618,9.944 16.618,10.731 C16.618,11.063 16.348,11.334 16.015,11.334 C15.683,11.334 15.412,11.063 15.412,10.731 C15.412,10.032 14.760,9.404 13.790,9.167 L13.603,9.121 L13.603,12.427 L13.730,12.448 ZM13.603,16.864 L13.790,16.818 C14.760,16.581 15.412,15.952 15.412,15.254 C15.412,14.555 14.760,13.927 13.790,13.690 L13.603,13.644 L13.603,16.864 ZM12.397,9.121 L12.210,9.167 C11.240,9.404 10.588,10.032 10.588,10.731 C10.588,11.429 11.240,12.058 12.210,12.295 L12.397,12.341 L12.397,9.121 Z"/>
</svg>