<svg 
 xmlns="http://www.w3.org/2000/svg"
 xmlns:xlink="http://www.w3.org/1999/xlink"
 width="20px" height="20px">
<path fill-rule="evenodd"  fill="rgb(178, 178, 178)"
 d="M20.000,10.000 C20.000,4.486 15.514,0.000 10.000,0.000 C4.486,0.000 0.000,4.486 0.000,10.000 C0.000,12.912 1.252,15.538 3.246,17.366 L3.236,17.375 L3.561,17.649 C3.582,17.666 3.605,17.681 3.626,17.698 C3.798,17.841 3.977,17.977 4.159,18.108 C4.217,18.150 4.276,18.193 4.336,18.235 C4.531,18.368 4.730,18.495 4.933,18.616 C4.978,18.642 5.023,18.667 5.067,18.693 C5.290,18.820 5.518,18.939 5.751,19.049 C5.768,19.057 5.785,19.064 5.803,19.072 C6.562,19.426 7.373,19.685 8.221,19.838 C8.243,19.842 8.265,19.846 8.288,19.850 C8.551,19.895 8.817,19.932 9.087,19.956 C9.120,19.959 9.152,19.961 9.185,19.963 C9.454,19.986 9.725,20.000 10.000,20.000 C10.272,20.000 10.541,19.986 10.808,19.964 C10.842,19.961 10.876,19.960 10.910,19.957 C11.177,19.933 11.441,19.897 11.701,19.852 C11.724,19.848 11.747,19.844 11.770,19.840 C12.605,19.690 13.404,19.437 14.154,19.093 C14.181,19.080 14.209,19.068 14.237,19.055 C14.461,18.949 14.681,18.836 14.896,18.715 C14.949,18.684 15.002,18.654 15.055,18.623 C15.251,18.507 15.443,18.387 15.630,18.259 C15.697,18.213 15.763,18.165 15.830,18.117 C15.990,18.002 16.146,17.883 16.299,17.759 C16.332,17.732 16.369,17.708 16.402,17.680 L16.734,17.403 L16.725,17.394 C18.736,15.565 20.000,12.927 20.000,10.000 ZM0.727,10.000 C0.727,4.887 4.887,0.727 10.000,0.727 C15.113,0.727 19.273,4.887 19.273,10.000 C19.273,12.755 18.064,15.232 16.149,16.932 C16.043,16.858 15.935,16.792 15.825,16.737 L12.746,15.198 C12.470,15.059 12.298,14.781 12.298,14.473 L12.298,13.398 C12.369,13.310 12.444,13.210 12.522,13.100 C12.921,12.538 13.240,11.911 13.474,11.237 C13.934,11.018 14.232,10.560 14.232,10.041 L14.232,8.752 C14.232,8.437 14.116,8.131 13.909,7.891 L13.909,6.194 C13.928,6.005 13.995,4.940 13.224,4.061 C12.554,3.297 11.470,2.909 10.000,2.909 C8.531,2.909 7.446,3.297 6.776,4.061 C6.005,4.940 6.072,6.005 6.091,6.193 L6.091,7.891 C5.884,8.131 5.768,8.437 5.768,8.752 L5.768,10.041 C5.768,10.442 5.948,10.815 6.256,11.067 C6.550,12.221 7.156,13.094 7.380,13.390 L7.380,14.443 C7.380,14.739 7.218,15.012 6.958,15.155 L4.082,16.723 C3.991,16.773 3.900,16.831 3.809,16.896 C1.919,15.197 0.727,12.735 0.727,10.000 Z"/>
</svg>