<svg 
 xmlns="http://www.w3.org/2000/svg"
 xmlns:xlink="http://www.w3.org/1999/xlink"
 width="200px" height="30px">
<path fill-rule="evenodd"  fill="rgb(255, 255, 255)"
 d="M25.385,-0.001 L24.673,-0.001 L18.683,-0.001 L16.792,-0.001 L15.601,-0.001 L6.579,17.349 L15.032,17.349 L19.299,9.143 L21.225,9.143 L23.510,19.551 L17.524,19.551 L17.524,19.558 L5.430,19.558 L-0.000,30.000 L8.414,30.000 L10.902,25.217 L24.770,25.217 L25.821,30.000 L34.235,30.000 L27.648,-0.001 L25.385,-0.001 ZM85.120,-0.001 L84.409,-0.001 L78.419,-0.001 L76.527,-0.001 L75.337,-0.001 L59.735,30.000 L68.150,30.000 L70.637,25.217 L84.506,25.217 L85.556,30.000 L93.971,30.000 L87.384,-0.001 L85.120,-0.001 ZM73.622,19.551 L79.035,9.143 L80.961,9.143 L83.246,19.551 L73.622,19.551 ZM59.701,-0.001 L47.926,22.643 L42.955,-0.001 L34.556,-0.001 L41.142,29.996 L44.102,29.996 L49.541,29.996 L52.551,29.996 L68.150,-0.001 L59.701,-0.001 ZM199.249,3.041 C198.506,1.840 197.273,1.033 195.556,0.620 C193.836,0.206 191.493,-0.001 188.518,-0.001 C185.458,-0.001 182.977,0.208 181.076,0.624 C179.176,1.041 177.613,1.902 176.388,3.209 C175.164,4.516 174.342,6.450 173.928,9.013 C173.613,10.987 173.632,12.554 173.982,13.713 C174.330,14.873 174.962,15.730 175.876,16.288 C176.791,16.845 177.855,17.217 179.069,17.403 C180.283,17.588 182.149,17.771 184.667,17.950 L186.474,18.065 C187.959,18.156 188.954,18.249 189.458,18.350 C189.963,18.448 190.281,18.666 190.410,19.002 C190.537,19.339 190.533,19.946 190.393,20.823 C190.262,21.644 190.007,22.245 189.630,22.625 C189.250,23.007 188.700,23.255 187.975,23.369 C187.252,23.486 186.182,23.543 184.770,23.543 C183.310,23.543 182.731,23.471 182.045,23.326 C181.358,23.183 180.901,22.871 180.674,22.394 C180.446,21.917 180.569,20.557 180.730,19.544 L172.270,19.544 C171.926,21.704 171.764,24.056 172.099,25.373 C172.434,26.690 173.087,27.680 174.059,28.343 C175.031,29.006 176.284,29.448 177.821,29.669 C179.356,29.891 181.331,30.000 183.742,30.000 C186.803,30.000 189.218,29.872 190.985,29.615 C192.752,29.360 194.143,28.897 195.158,28.227 C196.174,27.559 196.944,26.613 197.470,25.393 C197.994,24.173 198.430,22.480 198.775,20.314 C199.042,18.636 199.086,17.289 198.907,16.274 C198.726,15.257 198.265,14.453 197.521,13.856 C196.779,13.261 195.712,12.811 194.321,12.506 C192.932,12.202 191.036,11.970 188.636,11.809 L185.225,11.579 C184.300,11.502 183.636,11.413 183.236,11.310 C182.837,11.208 182.541,10.982 182.346,10.632 C182.152,10.284 182.116,9.730 182.236,8.975 C182.336,8.346 182.514,7.862 182.771,7.519 C183.029,7.176 183.521,6.913 184.249,6.731 C184.978,6.549 185.566,6.457 186.997,6.457 C188.322,6.457 189.106,6.505 189.678,6.602 C190.251,6.697 190.653,6.956 190.888,7.380 C191.121,7.802 191.087,8.732 190.930,9.718 L199.553,9.718 L199.820,8.273 C200.183,5.986 199.993,4.243 199.249,3.041 ZM158.031,30.000 L166.456,30.000 L170.963,-0.001 L162.538,-0.001 L158.031,30.000 ZM116.999,16.303 L110.973,-0.001 L101.244,-0.001 L96.737,30.000 L105.162,30.000 L107.611,13.697 L113.637,30.000 L123.366,30.000 L127.873,-0.001 L119.449,-0.001 L116.999,16.303 ZM149.754,-0.001 L140.954,-0.001 L131.708,-0.001 L130.439,8.427 L139.685,8.427 L136.446,30.000 L144.871,30.000 L148.305,8.412 L157.466,8.412 L158.721,-0.001 L149.754,-0.001 Z"/>
</svg>